<svg xmlns="http://www.w3.org/2000/svg" xmlns:xlink="http://www.w3.org/1999/xlink" width="1080" zoomAndPan="magnify" viewBox="0 0 810 809.999993" height="1080" preserveAspectRatio="xMidYMid meet" version="1.0"><defs><clipPath id="dd969f31e7"><path d="M 249.234375 413.105469 L 482.132812 413.105469 L 482.132812 503.714844 L 249.234375 503.714844 Z M 249.234375 413.105469 " clip-rule="nonzero"/></clipPath><clipPath id="f5ac787d39"><path d="M 404.570312 416.570312 C 392.648438 414.476562 379.09375 413.105469 365.789062 413.105469 C 352.488281 413.105469 339.683594 414.28125 327.886719 416.375 C 327.636719 416.4375 327.386719 416.4375 327.136719 416.503906 C 282.832031 424.871094 250.203125 446.964844 249.574219 471.519531 L 249.574219 503.714844 L 482.132812 503.714844 L 482.132812 471.542969 C 481.503906 446.835938 449.375 424.742188 404.570312 416.570312 Z M 404.570312 416.570312 " clip-rule="nonzero"/></clipPath><clipPath id="dd425e3d6e"><path d="M 249.84375 413 L 482.125 413 L 482.125 503.714844 L 249.84375 503.714844 Z M 249.84375 413 " clip-rule="nonzero"/></clipPath><clipPath id="362cbd76a1"><path d="M 404.570312 416.578125 C 392.648438 414.484375 379.097656 413.113281 365.792969 413.113281 C 352.492188 413.113281 339.691406 414.289062 327.894531 416.378906 C 327.644531 416.445312 327.394531 416.445312 327.140625 416.511719 C 282.84375 424.878906 250.214844 446.972656 249.585938 471.523438 L 249.585938 503.714844 L 482.125 503.714844 L 482.125 471.546875 C 481.496094 446.839844 449.371094 424.746094 404.570312 416.578125 Z M 404.570312 416.578125 " clip-rule="nonzero"/></clipPath><clipPath id="e25ecd1980"><path d="M 385.390625 364.621094 L 560.417969 364.621094 L 560.417969 539.644531 L 385.390625 539.644531 Z M 385.390625 364.621094 " clip-rule="nonzero"/></clipPath><clipPath id="5fbae7b207"><path d="M 472.90625 364.621094 C 424.574219 364.621094 385.390625 403.800781 385.390625 452.132812 C 385.390625 500.464844 424.574219 539.644531 472.90625 539.644531 C 521.238281 539.644531 560.417969 500.464844 560.417969 452.132812 C 560.417969 403.800781 521.238281 364.621094 472.90625 364.621094 Z M 472.90625 364.621094 " clip-rule="nonzero"/></clipPath><clipPath id="e2fb820d06"><path d="M 402.34375 392.34375 L 512.542969 392.34375 L 512.542969 512.179688 L 402.34375 512.179688 Z M 402.34375 392.34375 " clip-rule="nonzero"/></clipPath><clipPath id="91ba65f405"><path d="M 456.222656 397.304688 L 458.703125 397.304688 L 458.703125 509.527344 L 456.222656 509.527344 Z M 456.222656 397.304688 " clip-rule="nonzero"/></clipPath><clipPath id="1e2c98ae43"><path d="M 301.339844 248.425781 L 435.984375 248.425781 L 435.984375 383.070312 L 301.339844 383.070312 Z M 301.339844 248.425781 " clip-rule="nonzero"/></clipPath><clipPath id="9eb22a55d7"><path d="M 368.664062 248.425781 C 331.480469 248.425781 301.339844 278.566406 301.339844 315.746094 C 301.339844 352.929688 331.480469 383.070312 368.664062 383.070312 C 405.84375 383.070312 435.984375 352.929688 435.984375 315.746094 C 435.984375 278.566406 405.84375 248.425781 368.664062 248.425781 Z M 368.664062 248.425781 " clip-rule="nonzero"/></clipPath><clipPath id="eb917cc577"><path d="M 301.339844 248.425781 L 435.851562 248.425781 L 435.851562 382.933594 L 301.339844 382.933594 Z M 301.339844 248.425781 " clip-rule="nonzero"/></clipPath><clipPath id="4f0970cd2c"><path d="M 368.664062 248.425781 C 331.480469 248.425781 301.339844 278.566406 301.339844 315.746094 C 301.339844 352.929688 331.480469 383.070312 368.664062 383.070312 C 405.84375 383.070312 435.984375 352.929688 435.984375 315.746094 C 435.984375 278.566406 405.84375 248.425781 368.664062 248.425781 Z M 368.664062 248.425781 " clip-rule="nonzero"/></clipPath></defs><g clip-path="url(#dd969f31e7)"><g clip-path="url(#f5ac787d39)"><path fill="#ffffff" d="M 482.132812 503.714844 L 249.589844 503.714844 L 249.589844 413.105469 L 482.132812 413.105469 Z M 482.132812 503.714844 " fill-opacity="1" fill-rule="nonzero"/></g></g><g clip-path="url(#dd425e3d6e)"><g clip-path="url(#362cbd76a1)"><path stroke-linecap="butt" transform="matrix(-0.540205, 0, 0, -0.540205, 482.125227, 503.715043)" fill="none" stroke-linejoin="miter" d="M 143.565652 161.303361 C 165.634811 165.179203 190.719317 167.717301 215.348268 167.717301 C 239.969987 167.717301 263.666132 165.540755 285.503898 161.672144 C 285.966685 161.549216 286.429472 161.549216 286.89949 161.426289 C 368.899577 145.937383 429.300522 105.038575 430.464721 59.591437 L 430.464721 0.00036821 L 0.000420664 0.00036821 L 0.000420664 59.54805 C 1.164619 105.28443 60.63276 146.183239 143.565652 161.303361 Z M 143.565652 161.303361 " stroke="#000000" stroke-width="27.767227" stroke-opacity="1" stroke-miterlimit="4"/></g></g><g clip-path="url(#e25ecd1980)"><g clip-path="url(#5fbae7b207)"><path fill="#ffffff" d="M 385.390625 364.621094 L 560.417969 364.621094 L 560.417969 539.644531 L 385.390625 539.644531 Z M 385.390625 364.621094 " fill-opacity="1" fill-rule="nonzero"/></g></g><g clip-path="url(#e2fb820d06)"><path fill="#191716" d="M 409.269531 411.757812 C 409.273438 413.339844 409.34375 415.636719 409.589844 418.496094 C 410.042969 423.761719 411.214844 432.078125 414.222656 441.792969 C 419.390625 458.472656 431.074219 482.511719 457.445312 503.425781 C 483.8125 482.511719 495.496094 458.472656 500.664062 441.792969 C 503.671875 432.078125 504.84375 423.761719 505.296875 418.496094 C 505.546875 415.636719 505.613281 413.34375 505.617188 411.757812 L 457.445312 399.503906 Z M 457.445312 512.179688 L 455.347656 510.578125 C 442.363281 500.65625 431.503906 489.152344 423.0625 476.386719 C 416.296875 466.15625 411.066406 455.101562 407.515625 443.527344 C 401.445312 423.75 402.375 409.398438 402.417969 408.796875 L 402.597656 406.296875 L 457.445312 392.34375 L 512.289062 406.296875 L 512.46875 408.796875 C 512.511719 409.398438 513.441406 423.75 507.371094 443.527344 C 503.820312 455.101562 498.589844 466.15625 491.824219 476.386719 C 483.382812 489.152344 472.523438 500.65625 459.542969 510.578125 L 457.445312 512.179688 " fill-opacity="1" fill-rule="nonzero"/></g><g clip-path="url(#91ba65f405)"><path fill="#000000" d="M 458.703125 397.304688 L 458.703125 509.53125 L 456.222656 509.53125 L 456.222656 397.304688 Z M 458.703125 397.304688 " fill-opacity="1" fill-rule="nonzero"/></g><g clip-path="url(#1e2c98ae43)"><g clip-path="url(#9eb22a55d7)"><path fill="#ffffff" d="M 301.339844 248.425781 L 435.984375 248.425781 L 435.984375 383.070312 L 301.339844 383.070312 Z M 301.339844 248.425781 " fill-opacity="1" fill-rule="nonzero"/></g></g><g clip-path="url(#eb917cc577)"><g clip-path="url(#4f0970cd2c)"><path stroke-linecap="butt" transform="matrix(0.540205, 0, 0, 0.540205, 301.339179, 248.424003)" fill="none" stroke-linejoin="miter" d="M 124.628347 0.00329236 C 55.795999 0.00329236 0.00123103 55.79806 0.00123103 124.623177 C 0.00123103 193.455525 55.795999 249.250293 124.628347 249.250293 C 193.453464 249.250293 249.248232 193.455525 249.248232 124.623177 C 249.248232 55.79806 193.453464 0.00329236 124.628347 0.00329236 Z M 124.628347 0.00329236 " stroke="#000000" stroke-width="27.767227" stroke-opacity="1" stroke-miterlimit="4"/></g></g></svg>