<svg xmlns="http://www.w3.org/2000/svg" xmlns:xlink="http://www.w3.org/1999/xlink" width="1080" zoomAndPan="magnify" viewBox="0 0 810 809.999993" height="1080" preserveAspectRatio="xMidYMid meet" version="1.0"><defs><clipPath id="d0b92430c4"><path d="M 436 230 L 569 230 L 569 378 L 436 378 Z M 436 230 " clip-rule="nonzero"/></clipPath><clipPath id="307a845e51"><path d="M 405 346.914062 L 527.371094 202.875 L 595.960938 261.148438 L 473.589844 405.183594 Z M 405 346.914062 " clip-rule="nonzero"/></clipPath><clipPath id="ef02563ba0"><path d="M 405 346.914062 L 527.371094 202.875 L 595.960938 261.148438 L 473.589844 405.183594 Z M 405 346.914062 " clip-rule="nonzero"/></clipPath><clipPath id="0ff1045759"><path d="M 405 346.914062 L 527.371094 202.875 L 595.960938 261.148438 L 473.589844 405.183594 Z M 405 346.914062 " clip-rule="nonzero"/></clipPath></defs><g clip-path="url(#d0b92430c4)"><g clip-path="url(#307a845e51)"><g clip-path="url(#ef02563ba0)"><g clip-path="url(#0ff1045759)"><path fill="#000000" d="M 568.0625 289.832031 L 563.636719 237.082031 C 563.328125 233.425781 560.066406 230.652344 556.40625 230.941406 L 503.574219 235.039062 C 499.914062 235.328125 497.15625 238.574219 497.460938 242.234375 C 497.769531 245.890625 501.03125 248.664062 504.691406 248.375 L 541.40625 245.484375 L 438.503906 366.609375 C 436.125 369.410156 436.480469 373.65625 439.296875 376.046875 C 442.109375 378.441406 446.359375 378.105469 448.738281 375.304688 L 551.589844 254.246094 L 554.671875 290.945312 C 554.828125 292.832031 555.730469 294.363281 557.074219 295.507812 C 558.417969 296.648438 560.128906 297.226562 561.964844 297.140625 C 565.613281 296.734375 568.371094 293.488281 568.0625 289.832031 Z M 568.0625 289.832031 " fill-opacity="1" fill-rule="nonzero"/></g></g></g></g><path fill="#000000" d="M 537.96875 532.316406 L 538.039062 532.316406 Z M 300.703125 268.925781 C 297.699219 268.925781 294.863281 270.285156 291.78125 272.984375 C 291.441406 273.304688 287.03125 277.488281 284.160156 280.21875 L 281.65625 282.589844 C 267.019531 296.273438 260.382812 320.902344 264.75 345.351562 C 266.15625 353.246094 268.421875 361.425781 271.492188 369.660156 C 286.960938 411.207031 316.328125 447.328125 338.246094 470.320312 C 360.0625 493.464844 394.566406 524.722656 435.214844 542.394531 C 443.277344 545.894531 451.324219 548.601562 459.132812 550.429688 C 483.308594 556.09375 508.265625 550.789062 522.699219 536.910156 L 525.105469 534.625 C 527.902344 531.984375 532.261719 527.855469 532.894531 527.25 C 541.886719 518 537.394531 510.3125 519.359375 491.976562 L 514.851562 487.34375 C 503.429688 475.492188 484.261719 455.640625 468.058594 457.578125 C 463.65625 458.097656 459.054688 461.3125 454.1875 464.707031 C 449.355469 468.078125 444.363281 471.5625 438.375 473.460938 C 422.289062 478.558594 405.980469 475.207031 392.429688 464.042969 C 384.328125 457.363281 376.082031 449.550781 368.59375 441.46875 C 361.019531 433.660156 353.664062 425.015625 347.4375 416.574219 C 337.015625 402.453125 334.546875 385.988281 340.496094 370.199219 C 342.710938 364.316406 346.457031 359.515625 350.085938 354.875 C 353.738281 350.195312 357.191406 345.777344 357.945312 341.402344 C 360.730469 325.289062 341.949219 305.132812 330.71875 293.082031 L 326.347656 288.335938 C 314.449219 275.320312 307.210938 268.925781 300.703125 268.925781 Z M 478.640625 566.996094 C 470.558594 566.996094 462.789062 566.015625 455.859375 564.390625 C 447.21875 562.375 438.347656 559.390625 429.496094 555.542969 C 386.613281 536.910156 350.542969 504.28125 327.839844 480.1875 C 305.019531 456.253906 274.367188 418.488281 258.054688 374.667969 C 254.683594 365.625 252.1875 356.609375 250.628906 347.867188 C 246.492188 324.707031 249.894531 292.640625 271.863281 272.121094 L 274.285156 269.8125 C 277.34375 266.914062 282.101562 262.394531 282.292969 262.226562 C 304.265625 242.933594 323.929688 264.433594 336.929688 278.660156 L 341.214844 283.308594 C 354.253906 297.300781 376.074219 320.71875 372.078125 343.847656 C 370.707031 351.761719 365.757812 358.105469 361.390625 363.703125 C 358.289062 367.667969 355.355469 371.421875 353.914062 375.253906 C 349.679688 386.496094 351.433594 397.84375 358.976562 408.0625 C 364.828125 415.988281 371.753906 424.125 379 431.601562 C 386.175781 439.34375 393.9375 446.695312 401.550781 452.976562 C 411.355469 461.0625 422.589844 463.410156 434.042969 459.796875 C 437.949219 458.546875 441.84375 455.828125 445.972656 452.945312 C 451.800781 448.886719 458.390625 444.277344 466.375 443.335938 C 489.75 440.578125 511.90625 463.625 525.175781 477.394531 L 529.59375 481.917969 C 543.101562 495.664062 563.519531 516.441406 543.101562 537.332031 C 542.78125 537.636719 537.988281 542.1875 534.960938 545.042969 L 532.632812 547.253906 C 517.523438 561.777344 497.28125 566.996094 478.640625 566.996094 " fill-opacity="1" fill-rule="nonzero"/></svg>