<svg xmlns="http://www.w3.org/2000/svg" xmlns:xlink="http://www.w3.org/1999/xlink" width="1080" zoomAndPan="magnify" viewBox="0 0 810 809.999993" height="1080" preserveAspectRatio="xMidYMid meet" version="1.0"><path fill="#000000" d="M 472.984375 452.921875 C 473.144531 453.210938 473.328125 453.480469 473.539062 453.734375 C 473.75 453.988281 473.984375 454.222656 474.242188 454.429688 C 474.496094 454.636719 474.773438 454.820312 475.0625 454.972656 C 475.355469 455.128906 475.660156 455.253906 475.976562 455.347656 C 476.292969 455.445312 476.617188 455.507812 476.945312 455.539062 C 477.273438 455.574219 477.601562 455.574219 477.929688 455.542969 C 478.261719 455.507812 478.582031 455.445312 478.898438 455.351562 C 479.214844 455.257812 479.519531 455.132812 479.8125 454.976562 C 480.105469 454.824219 480.378906 454.644531 480.632812 454.4375 C 480.890625 454.230469 481.121094 454 481.332031 453.75 C 481.542969 453.496094 481.726562 453.222656 481.882812 452.933594 C 482.039062 452.644531 482.164062 452.34375 482.261719 452.03125 C 482.359375 451.714844 482.421875 451.394531 482.457031 451.066406 C 482.488281 450.738281 482.488281 450.414062 482.457031 450.085938 C 482.425781 449.757812 482.359375 449.4375 482.265625 449.121094 C 482.167969 448.808594 482.042969 448.503906 481.886719 448.214844 L 480.699219 446.011719 C 480.542969 445.722656 480.355469 445.449219 480.144531 445.195312 C 479.933594 444.941406 479.699219 444.710938 479.445312 444.5 C 479.1875 444.292969 478.914062 444.109375 478.621094 443.957031 C 478.328125 443.800781 478.023438 443.675781 477.707031 443.582031 C 477.390625 443.484375 477.070312 443.421875 476.738281 443.390625 C 476.410156 443.355469 476.082031 443.355469 475.753906 443.390625 C 475.425781 443.421875 475.101562 443.484375 474.785156 443.578125 C 474.46875 443.675781 474.164062 443.800781 473.871094 443.953125 C 473.582031 444.105469 473.304688 444.285156 473.050781 444.492188 C 472.796875 444.699219 472.5625 444.929688 472.351562 445.183594 C 472.140625 445.4375 471.957031 445.707031 471.800781 445.996094 C 471.644531 446.285156 471.519531 446.589844 471.421875 446.902344 C 471.324219 447.21875 471.261719 447.539062 471.230469 447.863281 C 471.195312 448.191406 471.195312 448.519531 471.226562 448.847656 C 471.257812 449.175781 471.324219 449.496094 471.417969 449.808594 C 471.515625 450.125 471.640625 450.425781 471.796875 450.714844 Z M 472.984375 452.921875 " fill-opacity="1" fill-rule="nonzero"/><path fill="#000000" d="M 491.386719 465.855469 C 491.230469 465.566406 491.042969 465.292969 490.832031 465.039062 C 490.621094 464.785156 490.386719 464.550781 490.132812 464.34375 C 489.875 464.136719 489.601562 463.953125 489.308594 463.800781 C 489.015625 463.644531 488.710938 463.519531 488.394531 463.421875 C 488.078125 463.328125 487.757812 463.265625 487.425781 463.230469 C 487.097656 463.199219 486.769531 463.199219 486.441406 463.230469 C 486.113281 463.265625 485.789062 463.328125 485.472656 463.421875 C 485.15625 463.519531 484.851562 463.644531 484.558594 463.796875 C 484.269531 463.949219 483.992188 464.128906 483.738281 464.335938 C 483.480469 464.542969 483.25 464.773438 483.039062 465.027344 C 482.828125 465.277344 482.644531 465.550781 482.488281 465.839844 C 482.332031 466.128906 482.207031 466.429688 482.109375 466.746094 C 482.011719 467.058594 481.949219 467.378906 481.914062 467.707031 C 481.882812 468.035156 481.882812 468.363281 481.914062 468.691406 C 481.945312 469.015625 482.011719 469.339844 482.105469 469.652344 C 482.203125 469.96875 482.328125 470.269531 482.484375 470.558594 L 483.671875 472.761719 C 483.832031 473.054688 484.015625 473.324219 484.226562 473.578125 C 484.4375 473.832031 484.671875 474.0625 484.929688 474.273438 C 485.183594 474.480469 485.460938 474.664062 485.75 474.816406 C 486.042969 474.972656 486.347656 475.097656 486.664062 475.191406 C 486.980469 475.289062 487.304688 475.351562 487.632812 475.382812 C 487.960938 475.417969 488.289062 475.417969 488.617188 475.382812 C 488.949219 475.351562 489.269531 475.289062 489.585938 475.195312 C 489.902344 475.097656 490.207031 474.972656 490.5 474.820312 C 490.792969 474.667969 491.066406 474.488281 491.320312 474.28125 C 491.578125 474.074219 491.808594 473.84375 492.019531 473.589844 C 492.230469 473.339844 492.414062 473.066406 492.570312 472.777344 C 492.726562 472.488281 492.851562 472.1875 492.949219 471.871094 C 493.046875 471.558594 493.109375 471.238281 493.144531 470.910156 C 493.175781 470.582031 493.175781 470.253906 493.144531 469.929688 C 493.113281 469.601562 493.046875 469.28125 492.953125 468.964844 C 492.855469 468.648438 492.730469 468.347656 492.574219 468.058594 Z M 491.386719 465.855469 " fill-opacity="1" fill-rule="nonzero"/><path fill="#000000" d="M 503.261719 487.902344 L 502.078125 485.699219 C 501.917969 485.40625 501.734375 485.136719 501.523438 484.878906 C 501.3125 484.625 501.078125 484.394531 500.824219 484.183594 C 500.566406 483.976562 500.292969 483.792969 500 483.640625 C 499.707031 483.484375 499.402344 483.359375 499.085938 483.261719 C 498.769531 483.167969 498.449219 483.105469 498.117188 483.070312 C 497.789062 483.039062 497.460938 483.039062 497.132812 483.070312 C 496.804688 483.101562 496.480469 483.167969 496.164062 483.261719 C 495.847656 483.355469 495.542969 483.480469 495.25 483.636719 C 494.957031 483.789062 494.683594 483.96875 494.429688 484.175781 C 494.171875 484.382812 493.9375 484.609375 493.730469 484.863281 C 493.519531 485.117188 493.335938 485.386719 493.179688 485.675781 C 493.019531 485.964844 492.894531 486.269531 492.796875 486.582031 C 492.699219 486.898438 492.636719 487.21875 492.601562 487.546875 C 492.570312 487.871094 492.570312 488.199219 492.601562 488.527344 C 492.632812 488.855469 492.695312 489.175781 492.792969 489.492188 C 492.886719 489.804688 493.011719 490.109375 493.167969 490.398438 L 494.355469 492.605469 C 494.515625 492.894531 494.699219 493.164062 494.910156 493.421875 C 495.121094 493.675781 495.355469 493.90625 495.613281 494.113281 C 495.867188 494.320312 496.140625 494.503906 496.433594 494.660156 C 496.726562 494.8125 497.03125 494.9375 497.347656 495.035156 C 497.664062 495.128906 497.984375 495.195312 498.3125 495.226562 C 498.644531 495.257812 498.972656 495.257812 499.300781 495.226562 C 499.628906 495.195312 499.953125 495.132812 500.269531 495.039062 C 500.585938 494.945312 500.890625 494.820312 501.183594 494.664062 C 501.472656 494.511719 501.75 494.332031 502.003906 494.128906 C 502.261719 493.921875 502.492188 493.691406 502.703125 493.4375 C 502.914062 493.183594 503.097656 492.914062 503.253906 492.625 C 503.410156 492.335938 503.539062 492.035156 503.632812 491.71875 C 503.730469 491.40625 503.796875 491.082031 503.828125 490.757812 C 503.863281 490.429688 503.863281 490.101562 503.832031 489.773438 C 503.800781 489.445312 503.734375 489.125 503.640625 488.8125 C 503.542969 488.496094 503.417969 488.195312 503.261719 487.902344 Z M 503.261719 487.902344 " fill-opacity="1" fill-rule="nonzero"/><path fill="#000000" d="M 318.613281 465.855469 L 317.425781 468.058594 C 317.269531 468.347656 317.144531 468.648438 317.046875 468.964844 C 316.953125 469.28125 316.886719 469.601562 316.855469 469.929688 C 316.824219 470.253906 316.824219 470.582031 316.855469 470.910156 C 316.890625 471.238281 316.953125 471.558594 317.050781 471.871094 C 317.148438 472.1875 317.273438 472.488281 317.429688 472.777344 C 317.585938 473.066406 317.769531 473.339844 317.980469 473.589844 C 318.191406 473.84375 318.421875 474.074219 318.679688 474.28125 C 318.933594 474.488281 319.207031 474.667969 319.5 474.820312 C 319.792969 474.972656 320.097656 475.097656 320.414062 475.195312 C 320.730469 475.289062 321.054688 475.351562 321.382812 475.382812 C 321.710938 475.417969 322.039062 475.417969 322.367188 475.382812 C 322.699219 475.351562 323.019531 475.289062 323.335938 475.191406 C 323.652344 475.097656 323.957031 474.972656 324.25 474.816406 C 324.542969 474.664062 324.816406 474.480469 325.070312 474.273438 C 325.328125 474.0625 325.5625 473.832031 325.773438 473.578125 C 325.984375 473.324219 326.171875 473.054688 326.328125 472.761719 L 327.515625 470.558594 C 327.671875 470.269531 327.796875 469.96875 327.894531 469.652344 C 327.988281 469.339844 328.054688 469.015625 328.085938 468.691406 C 328.117188 468.363281 328.117188 468.035156 328.085938 467.707031 C 328.050781 467.378906 327.988281 467.058594 327.890625 466.746094 C 327.792969 466.429688 327.667969 466.128906 327.511719 465.839844 C 327.355469 465.550781 327.171875 465.277344 326.960938 465.027344 C 326.75 464.773438 326.519531 464.542969 326.261719 464.335938 C 326.007812 464.128906 325.734375 463.949219 325.441406 463.796875 C 325.148438 463.644531 324.84375 463.519531 324.527344 463.421875 C 324.210938 463.328125 323.890625 463.261719 323.558594 463.230469 C 323.230469 463.199219 322.902344 463.199219 322.574219 463.230469 C 322.242188 463.261719 321.921875 463.328125 321.605469 463.421875 C 321.289062 463.515625 320.984375 463.644531 320.691406 463.796875 C 320.398438 463.953125 320.125 464.132812 319.867188 464.34375 C 319.613281 464.550781 319.378906 464.78125 319.167969 465.039062 C 318.957031 465.292969 318.769531 465.5625 318.613281 465.855469 Z M 318.613281 465.855469 " fill-opacity="1" fill-rule="nonzero"/><path fill="#000000" d="M 329.300781 446.011719 L 328.113281 448.214844 C 327.957031 448.503906 327.832031 448.808594 327.734375 449.121094 C 327.640625 449.4375 327.574219 449.757812 327.542969 450.085938 C 327.511719 450.414062 327.511719 450.738281 327.542969 451.066406 C 327.578125 451.394531 327.640625 451.714844 327.738281 452.03125 C 327.835938 452.34375 327.960938 452.644531 328.117188 452.933594 C 328.273438 453.222656 328.457031 453.496094 328.667969 453.75 C 328.878906 454 329.109375 454.230469 329.367188 454.4375 C 329.621094 454.644531 329.894531 454.824219 330.1875 454.976562 C 330.480469 455.132812 330.785156 455.257812 331.101562 455.351562 C 331.417969 455.445312 331.738281 455.507812 332.070312 455.542969 C 332.398438 455.574219 332.726562 455.574219 333.054688 455.539062 C 333.382812 455.507812 333.707031 455.445312 334.023438 455.347656 C 334.339844 455.253906 334.644531 455.128906 334.9375 454.972656 C 335.226562 454.820312 335.503906 454.636719 335.757812 454.429688 C 336.015625 454.222656 336.25 453.988281 336.460938 453.734375 C 336.671875 453.480469 336.859375 453.210938 337.015625 452.917969 L 338.203125 450.714844 C 338.359375 450.425781 338.484375 450.125 338.582031 449.808594 C 338.675781 449.496094 338.742188 449.175781 338.773438 448.847656 C 338.804688 448.519531 338.804688 448.191406 338.773438 447.863281 C 338.738281 447.539062 338.675781 447.21875 338.578125 446.902344 C 338.480469 446.589844 338.355469 446.285156 338.199219 445.996094 C 338.042969 445.707031 337.859375 445.4375 337.648438 445.183594 C 337.4375 444.929688 337.207031 444.699219 336.949219 444.492188 C 336.695312 444.285156 336.421875 444.105469 336.128906 443.953125 C 335.835938 443.800781 335.53125 443.675781 335.214844 443.578125 C 334.898438 443.484375 334.578125 443.417969 334.246094 443.386719 C 333.917969 443.355469 333.589844 443.355469 333.261719 443.386719 C 332.929688 443.417969 332.609375 443.484375 332.292969 443.578125 C 331.976562 443.671875 331.671875 443.800781 331.378906 443.953125 C 331.085938 444.109375 330.8125 444.289062 330.554688 444.5 C 330.300781 444.707031 330.066406 444.941406 329.855469 445.195312 C 329.644531 445.449219 329.457031 445.722656 329.300781 446.011719 Z M 329.300781 446.011719 " fill-opacity="1" fill-rule="nonzero"/><path fill="#000000" d="M 307.921875 485.699219 L 306.738281 487.902344 C 306.582031 488.195312 306.457031 488.496094 306.359375 488.8125 C 306.265625 489.125 306.199219 489.445312 306.167969 489.773438 C 306.136719 490.101562 306.136719 490.429688 306.171875 490.757812 C 306.203125 491.082031 306.269531 491.40625 306.367188 491.71875 C 306.460938 492.035156 306.589844 492.335938 306.746094 492.625 C 306.902344 492.914062 307.085938 493.183594 307.296875 493.4375 C 307.507812 493.691406 307.742188 493.921875 307.996094 494.128906 C 308.253906 494.332031 308.527344 494.511719 308.816406 494.664062 C 309.109375 494.820312 309.414062 494.945312 309.730469 495.039062 C 310.046875 495.132812 310.371094 495.195312 310.699219 495.226562 C 311.027344 495.257812 311.359375 495.257812 311.6875 495.226562 C 312.015625 495.195312 312.335938 495.128906 312.652344 495.035156 C 312.96875 494.9375 313.273438 494.8125 313.566406 494.660156 C 313.859375 494.503906 314.132812 494.320312 314.390625 494.113281 C 314.644531 493.90625 314.878906 493.675781 315.089844 493.421875 C 315.300781 493.164062 315.488281 492.894531 315.644531 492.605469 L 316.832031 490.398438 C 316.988281 490.109375 317.113281 489.804688 317.207031 489.492188 C 317.304688 489.175781 317.367188 488.855469 317.398438 488.527344 C 317.429688 488.199219 317.429688 487.871094 317.398438 487.546875 C 317.363281 487.21875 317.300781 486.898438 317.203125 486.582031 C 317.105469 486.269531 316.980469 485.964844 316.824219 485.675781 C 316.664062 485.386719 316.480469 485.117188 316.273438 484.863281 C 316.0625 484.609375 315.828125 484.382812 315.570312 484.175781 C 315.316406 483.96875 315.042969 483.789062 314.75 483.636719 C 314.457031 483.480469 314.152344 483.355469 313.835938 483.261719 C 313.519531 483.167969 313.199219 483.101562 312.867188 483.070312 C 312.539062 483.039062 312.210938 483.039062 311.882812 483.070312 C 311.550781 483.105469 311.230469 483.167969 310.914062 483.261719 C 310.597656 483.359375 310.292969 483.484375 310 483.640625 C 309.707031 483.792969 309.433594 483.976562 309.179688 484.183594 C 308.921875 484.394531 308.6875 484.625 308.476562 484.878906 C 308.265625 485.136719 308.082031 485.40625 307.921875 485.699219 Z M 307.921875 485.699219 " fill-opacity="1" fill-rule="nonzero"/><path fill="#000000" d="M 355.488281 491.886719 C 355.164062 491.8125 354.839844 491.769531 354.507812 491.757812 C 354.179688 491.75 353.851562 491.769531 353.527344 491.824219 C 353.199219 491.878906 352.882812 491.964844 352.574219 492.078125 C 352.265625 492.195312 351.96875 492.339844 351.691406 492.515625 C 351.410156 492.6875 351.148438 492.886719 350.90625 493.113281 C 350.664062 493.335938 350.449219 493.582031 350.253906 493.851562 C 350.0625 494.117188 349.894531 494.402344 349.757812 494.703125 C 349.621094 495.003906 349.511719 495.3125 349.4375 495.632812 L 348.867188 498.070312 C 348.796875 498.390625 348.753906 498.714844 348.746094 499.042969 C 348.734375 499.375 348.757812 499.699219 348.8125 500.027344 C 348.871094 500.351562 348.957031 500.667969 349.074219 500.972656 C 349.191406 501.28125 349.339844 501.574219 349.515625 501.851562 C 349.691406 502.132812 349.890625 502.390625 350.117188 502.628906 C 350.347656 502.867188 350.59375 503.082031 350.863281 503.269531 C 351.132812 503.460938 351.417969 503.621094 351.71875 503.753906 C 352.019531 503.886719 352.332031 503.992188 352.652344 504.0625 C 353.027344 504.148438 353.40625 504.1875 353.792969 504.1875 C 354.359375 504.191406 354.910156 504.097656 355.449219 503.914062 C 355.984375 503.726562 356.476562 503.457031 356.921875 503.105469 C 357.367188 502.753906 357.742188 502.339844 358.050781 501.863281 C 358.355469 501.382812 358.574219 500.867188 358.703125 500.3125 L 359.269531 497.878906 C 359.34375 497.558594 359.386719 497.234375 359.394531 496.902344 C 359.402344 496.574219 359.378906 496.246094 359.324219 495.921875 C 359.269531 495.597656 359.183594 495.28125 359.066406 494.972656 C 358.949219 494.667969 358.800781 494.375 358.625 494.09375 C 358.449219 493.816406 358.246094 493.558594 358.019531 493.320312 C 357.792969 493.082031 357.546875 492.867188 357.277344 492.675781 C 357.007812 492.488281 356.722656 492.328125 356.421875 492.195312 C 356.121094 492.058594 355.808594 491.957031 355.488281 491.886719 Z M 355.488281 491.886719 " fill-opacity="1" fill-rule="nonzero"/><path fill="#000000" d="M 363.808594 478.40625 L 364.378906 475.96875 C 364.453125 475.648438 364.492188 475.324219 364.503906 474.992188 C 364.511719 474.664062 364.488281 474.339844 364.433594 474.011719 C 364.378906 473.6875 364.292969 473.371094 364.175781 473.066406 C 364.054688 472.757812 363.910156 472.464844 363.734375 472.1875 C 363.558594 471.90625 363.355469 471.648438 363.128906 471.410156 C 362.902344 471.171875 362.65625 470.957031 362.386719 470.769531 C 362.117188 470.578125 361.832031 470.417969 361.53125 470.285156 C 361.230469 470.148438 360.917969 470.046875 360.597656 469.976562 C 360.273438 469.902344 359.949219 469.859375 359.617188 469.847656 C 359.289062 469.839844 358.960938 469.859375 358.636719 469.914062 C 358.308594 469.96875 357.992188 470.050781 357.683594 470.167969 C 357.375 470.285156 357.078125 470.429688 356.800781 470.601562 C 356.519531 470.773438 356.257812 470.972656 356.015625 471.199219 C 355.773438 471.425781 355.554688 471.671875 355.363281 471.9375 C 355.167969 472.203125 355.003906 472.488281 354.867188 472.789062 C 354.726562 473.089844 354.621094 473.398438 354.542969 473.71875 L 353.976562 476.15625 C 353.902344 476.476562 353.859375 476.800781 353.851562 477.128906 C 353.839844 477.460938 353.863281 477.785156 353.917969 478.109375 C 353.972656 478.433594 354.0625 478.75 354.179688 479.058594 C 354.296875 479.367188 354.441406 479.660156 354.617188 479.9375 C 354.792969 480.214844 354.996094 480.476562 355.222656 480.714844 C 355.449219 480.953125 355.699219 481.167969 355.964844 481.355469 C 356.234375 481.546875 356.519531 481.707031 356.824219 481.839844 C 357.125 481.972656 357.433594 482.074219 357.757812 482.148438 C 358.078125 482.222656 358.402344 482.265625 358.734375 482.273438 C 359.0625 482.285156 359.390625 482.261719 359.714844 482.210938 C 360.042969 482.15625 360.359375 482.070312 360.667969 481.957031 C 360.976562 481.839844 361.273438 481.695312 361.550781 481.519531 C 361.832031 481.347656 362.09375 481.148438 362.335938 480.921875 C 362.578125 480.699219 362.796875 480.453125 362.988281 480.1875 C 363.183594 479.917969 363.347656 479.636719 363.488281 479.335938 C 363.625 479.035156 363.730469 478.726562 363.808594 478.40625 Z M 363.808594 478.40625 " fill-opacity="1" fill-rule="nonzero"/><path fill="#000000" d="M 359.648438 451.808594 L 359.082031 454.246094 C 359.007812 454.566406 358.96875 454.890625 358.957031 455.21875 C 358.949219 455.550781 358.972656 455.875 359.027344 456.199219 C 359.082031 456.527344 359.167969 456.84375 359.285156 457.148438 C 359.40625 457.457031 359.550781 457.75 359.726562 458.027344 C 359.902344 458.308594 360.105469 458.566406 360.332031 458.804688 C 360.558594 459.042969 360.808594 459.257812 361.074219 459.445312 C 361.34375 459.636719 361.628906 459.796875 361.933594 459.929688 C 362.234375 460.0625 362.542969 460.167969 362.867188 460.238281 C 363.242188 460.320312 363.621094 460.363281 364.003906 460.363281 C 364.570312 460.367188 365.125 460.273438 365.660156 460.089844 C 366.199219 459.902344 366.6875 459.632812 367.136719 459.28125 C 367.582031 458.929688 367.957031 458.515625 368.261719 458.035156 C 368.566406 457.558594 368.785156 457.042969 368.917969 456.488281 L 369.484375 454.054688 C 369.558594 453.734375 369.597656 453.410156 369.609375 453.078125 C 369.617188 452.75 369.59375 452.421875 369.539062 452.097656 C 369.484375 451.773438 369.394531 451.457031 369.277344 451.148438 C 369.160156 450.84375 369.011719 450.550781 368.835938 450.269531 C 368.660156 449.992188 368.460938 449.734375 368.234375 449.496094 C 368.007812 449.257812 367.757812 449.042969 367.488281 448.851562 C 367.21875 448.664062 366.933594 448.503906 366.632812 448.367188 C 366.332031 448.234375 366.019531 448.132812 365.699219 448.0625 C 365.378906 447.988281 365.050781 447.945312 364.722656 447.9375 C 364.394531 447.925781 364.066406 447.949219 363.738281 448 C 363.414062 448.054688 363.097656 448.140625 362.789062 448.257812 C 362.480469 448.375 362.183594 448.519531 361.902344 448.691406 C 361.625 448.867188 361.363281 449.066406 361.121094 449.289062 C 360.878906 449.515625 360.660156 449.761719 360.46875 450.027344 C 360.273438 450.296875 360.109375 450.578125 359.972656 450.878906 C 359.832031 451.179688 359.726562 451.488281 359.648438 451.808594 Z M 359.648438 451.808594 " fill-opacity="1" fill-rule="nonzero"/><path fill="#000000" d="M 450.351562 451.808594 C 450.273438 451.488281 450.167969 451.179688 450.027344 450.878906 C 449.890625 450.578125 449.726562 450.296875 449.53125 450.027344 C 449.339844 449.761719 449.121094 449.515625 448.878906 449.289062 C 448.636719 449.066406 448.375 448.867188 448.097656 448.691406 C 447.816406 448.519531 447.519531 448.375 447.210938 448.257812 C 446.902344 448.140625 446.585938 448.054688 446.261719 448.003906 C 445.933594 447.949219 445.609375 447.925781 445.277344 447.9375 C 444.949219 447.945312 444.621094 447.988281 444.300781 448.0625 C 443.980469 448.132812 443.667969 448.234375 443.367188 448.367188 C 443.066406 448.503906 442.78125 448.664062 442.511719 448.851562 C 442.242188 449.042969 441.992188 449.257812 441.765625 449.496094 C 441.539062 449.734375 441.339844 449.992188 441.164062 450.269531 C 440.988281 450.550781 440.839844 450.84375 440.722656 451.148438 C 440.605469 451.457031 440.519531 451.773438 440.460938 452.097656 C 440.40625 452.421875 440.382812 452.75 440.394531 453.078125 C 440.402344 453.410156 440.445312 453.734375 440.515625 454.054688 L 441.082031 456.488281 C 441.214844 457.042969 441.433594 457.558594 441.738281 458.035156 C 442.042969 458.515625 442.417969 458.929688 442.867188 459.28125 C 443.3125 459.632812 443.800781 459.902344 444.339844 460.089844 C 444.875 460.273438 445.429688 460.367188 445.996094 460.363281 C 446.378906 460.363281 446.761719 460.320312 447.136719 460.238281 C 447.457031 460.167969 447.765625 460.0625 448.070312 459.929688 C 448.371094 459.796875 448.65625 459.636719 448.925781 459.445312 C 449.195312 459.257812 449.441406 459.042969 449.667969 458.804688 C 449.894531 458.566406 450.097656 458.308594 450.273438 458.027344 C 450.449219 457.75 450.59375 457.457031 450.714844 457.148438 C 450.832031 456.84375 450.917969 456.527344 450.972656 456.199219 C 451.027344 455.875 451.050781 455.550781 451.042969 455.21875 C 451.035156 454.890625 450.992188 454.566406 450.917969 454.246094 Z M 450.351562 451.808594 " fill-opacity="1" fill-rule="nonzero"/><path fill="#000000" d="M 455.457031 473.71875 C 455.378906 473.398438 455.273438 473.089844 455.136719 472.789062 C 454.996094 472.488281 454.832031 472.203125 454.640625 471.9375 C 454.445312 471.667969 454.226562 471.421875 453.984375 471.199219 C 453.746094 470.972656 453.484375 470.773438 453.203125 470.601562 C 452.921875 470.425781 452.625 470.28125 452.316406 470.167969 C 452.007812 470.050781 451.691406 469.964844 451.363281 469.914062 C 451.039062 469.859375 450.710938 469.835938 450.382812 469.847656 C 450.050781 469.859375 449.726562 469.902344 449.40625 469.976562 C 449.082031 470.046875 448.773438 470.148438 448.46875 470.285156 C 448.167969 470.417969 447.882812 470.578125 447.613281 470.769531 C 447.347656 470.957031 447.097656 471.171875 446.871094 471.410156 C 446.644531 471.648438 446.441406 471.90625 446.265625 472.1875 C 446.089844 472.464844 445.945312 472.757812 445.828125 473.066406 C 445.707031 473.371094 445.621094 473.6875 445.566406 474.011719 C 445.511719 474.339844 445.488281 474.664062 445.5 474.992188 C 445.507812 475.324219 445.550781 475.648438 445.621094 475.96875 L 446.191406 478.40625 C 446.265625 478.726562 446.375 479.035156 446.511719 479.335938 C 446.648438 479.632812 446.8125 479.917969 447.003906 480.183594 C 447.199219 480.453125 447.414062 480.699219 447.65625 480.921875 C 447.894531 481.148438 448.15625 481.347656 448.4375 481.519531 C 448.714844 481.695312 449.007812 481.839844 449.316406 481.957031 C 449.625 482.070312 449.941406 482.15625 450.265625 482.210938 C 450.589844 482.265625 450.917969 482.289062 451.246094 482.277344 C 451.578125 482.269531 451.902344 482.226562 452.222656 482.152344 C 452.542969 482.078125 452.855469 481.976562 453.15625 481.839844 C 453.457031 481.707031 453.742188 481.546875 454.011719 481.355469 C 454.277344 481.164062 454.527344 480.949219 454.753906 480.710938 C 454.980469 480.472656 455.183594 480.214844 455.359375 479.9375 C 455.535156 479.660156 455.683594 479.367188 455.800781 479.058594 C 455.921875 478.75 456.007812 478.4375 456.066406 478.113281 C 456.125 477.789062 456.148438 477.460938 456.140625 477.132812 C 456.136719 476.800781 456.097656 476.476562 456.027344 476.15625 Z M 455.457031 473.71875 " fill-opacity="1" fill-rule="nonzero"/><path fill="#000000" d="M 450.730469 497.878906 L 451.296875 500.3125 C 451.429688 500.867188 451.644531 501.382812 451.953125 501.863281 C 452.257812 502.339844 452.632812 502.753906 453.078125 503.105469 C 453.523438 503.457031 454.015625 503.726562 454.550781 503.914062 C 455.089844 504.097656 455.640625 504.191406 456.210938 504.1875 C 456.59375 504.1875 456.972656 504.148438 457.347656 504.0625 C 457.667969 503.992188 457.980469 503.886719 458.28125 503.753906 C 458.582031 503.621094 458.867188 503.460938 459.136719 503.269531 C 459.40625 503.082031 459.65625 502.867188 459.882812 502.628906 C 460.109375 502.390625 460.308594 502.132812 460.484375 501.851562 C 460.660156 501.574219 460.808594 501.28125 460.925781 500.972656 C 461.042969 500.667969 461.132812 500.351562 461.1875 500.027344 C 461.242188 499.699219 461.265625 499.375 461.253906 499.042969 C 461.246094 498.714844 461.203125 498.390625 461.132812 498.070312 L 460.566406 495.632812 C 460.488281 495.3125 460.378906 495.003906 460.242188 494.703125 C 460.105469 494.402344 459.9375 494.117188 459.746094 493.851562 C 459.554688 493.585938 459.335938 493.335938 459.09375 493.113281 C 458.851562 492.886719 458.589844 492.6875 458.3125 492.515625 C 458.03125 492.339844 457.734375 492.195312 457.425781 492.078125 C 457.117188 491.964844 456.800781 491.878906 456.472656 491.824219 C 456.148438 491.769531 455.820312 491.75 455.492188 491.757812 C 455.160156 491.769531 454.835938 491.8125 454.515625 491.886719 C 454.191406 491.957031 453.882812 492.058594 453.578125 492.195312 C 453.277344 492.328125 452.992188 492.488281 452.722656 492.675781 C 452.453125 492.867188 452.207031 493.082031 451.980469 493.320312 C 451.753906 493.558594 451.550781 493.816406 451.375 494.09375 C 451.199219 494.375 451.054688 494.667969 450.933594 494.976562 C 450.816406 495.28125 450.730469 495.597656 450.675781 495.921875 C 450.621094 496.246094 450.597656 496.574219 450.605469 496.902344 C 450.613281 497.234375 450.65625 497.558594 450.730469 497.878906 Z M 450.730469 497.878906 " fill-opacity="1" fill-rule="nonzero"/><path fill="#000000" d="M 565.003906 516.230469 L 500.292969 429.507812 C 499.382812 428.289062 498.289062 427.269531 497.007812 426.445312 C 495.726562 425.625 494.34375 425.050781 492.859375 424.730469 L 465.492188 418.761719 C 464.265625 418.488281 463.042969 418.511719 461.828125 418.835938 L 454.75 420.703125 L 448.230469 432.761719 L 460.632812 429.492188 C 460.722656 429.976562 460.882812 430.4375 461.109375 430.875 L 462.296875 433.078125 C 462.453125 433.371094 462.640625 433.640625 462.851562 433.894531 C 463.0625 434.148438 463.296875 434.378906 463.550781 434.589844 C 463.808594 434.796875 464.082031 434.980469 464.375 435.132812 C 464.667969 435.289062 464.972656 435.414062 465.289062 435.507812 C 465.605469 435.605469 465.925781 435.667969 466.253906 435.699219 C 466.585938 435.730469 466.914062 435.734375 467.242188 435.699219 C 467.570312 435.667969 467.894531 435.605469 468.210938 435.511719 C 468.527344 435.414062 468.832031 435.289062 469.121094 435.136719 C 469.550781 434.910156 469.941406 434.628906 470.289062 434.289062 C 470.632812 433.953125 470.925781 433.570312 471.160156 433.148438 C 471.398438 432.722656 471.566406 432.273438 471.671875 431.800781 C 471.777344 431.328125 471.8125 430.847656 471.777344 430.367188 L 490.6875 434.488281 C 491.300781 434.621094 491.796875 434.941406 492.175781 435.445312 L 551.640625 515.140625 L 507.003906 497.425781 C 505.851562 496.972656 504.660156 496.800781 503.429688 496.914062 C 502.195312 497.027344 501.054688 497.414062 500.003906 498.070312 L 466.105469 519.402344 L 465.671875 517.542969 C 465.59375 517.222656 465.488281 516.914062 465.347656 516.613281 C 465.210938 516.3125 465.046875 516.027344 464.851562 515.761719 C 464.660156 515.492188 464.441406 515.246094 464.199219 515.023438 C 463.957031 514.796875 463.695312 514.597656 463.414062 514.421875 C 463.136719 514.25 462.839844 514.105469 462.53125 513.988281 C 462.222656 513.875 461.902344 513.789062 461.578125 513.734375 C 461.253906 513.683594 460.925781 513.660156 460.59375 513.671875 C 460.265625 513.683594 459.9375 513.726562 459.617188 513.800781 C 459.296875 513.871094 458.984375 513.976562 458.683594 514.109375 C 458.382812 514.242188 458.097656 514.402344 457.828125 514.59375 C 457.558594 514.78125 457.308594 514.996094 457.082031 515.234375 C 456.855469 515.472656 456.65625 515.730469 456.480469 516.011719 C 456.304688 516.289062 456.15625 516.582031 456.039062 516.890625 C 455.921875 517.195312 455.835938 517.511719 455.78125 517.835938 C 455.726562 518.164062 455.703125 518.488281 455.710938 518.820312 C 455.71875 519.148438 455.761719 519.472656 455.835938 519.792969 L 456.140625 521.101562 L 409.589844 498.089844 C 408.523438 497.566406 407.394531 497.300781 406.207031 497.289062 C 405.019531 497.28125 403.890625 497.527344 402.816406 498.03125 L 353.824219 521.25 L 354.164062 519.792969 C 354.238281 519.472656 354.28125 519.148438 354.289062 518.820312 C 354.296875 518.488281 354.277344 518.164062 354.21875 517.835938 C 354.164062 517.511719 354.078125 517.195312 353.960938 516.890625 C 353.84375 516.582031 353.695312 516.289062 353.519531 516.011719 C 353.34375 515.730469 353.144531 515.472656 352.917969 515.234375 C 352.691406 514.996094 352.441406 514.78125 352.171875 514.59375 C 351.902344 514.402344 351.617188 514.242188 351.316406 514.109375 C 351.015625 513.976562 350.703125 513.871094 350.382812 513.800781 C 350.0625 513.726562 349.734375 513.683594 349.40625 513.671875 C 349.074219 513.664062 348.75 513.683594 348.421875 513.738281 C 348.097656 513.789062 347.78125 513.875 347.46875 513.992188 C 347.160156 514.105469 346.867188 514.25 346.585938 514.425781 C 346.304688 514.597656 346.042969 514.796875 345.800781 515.023438 C 345.558594 515.246094 345.34375 515.492188 345.148438 515.761719 C 344.957031 516.027344 344.789062 516.3125 344.652344 516.613281 C 344.515625 516.914062 344.40625 517.222656 344.328125 517.542969 L 343.910156 519.34375 L 311.230469 498.511719 C 310.183594 497.847656 309.042969 497.457031 307.808594 497.335938 C 306.574219 497.21875 305.378906 497.382812 304.222656 497.835938 L 258.460938 515.773438 L 319.273438 435.785156 C 319.640625 435.308594 320.113281 435 320.699219 434.859375 L 338.226562 430.660156 C 338.21875 431.121094 338.273438 431.570312 338.394531 432.015625 C 338.511719 432.457031 338.6875 432.878906 338.921875 433.273438 C 339.152344 433.667969 339.4375 434.023438 339.769531 434.339844 C 340.101562 434.65625 340.472656 434.921875 340.878906 435.136719 C 341.167969 435.289062 341.472656 435.414062 341.789062 435.511719 C 342.105469 435.605469 342.429688 435.667969 342.757812 435.699219 C 343.085938 435.734375 343.417969 435.730469 343.746094 435.699219 C 344.074219 435.667969 344.398438 435.605469 344.714844 435.507812 C 345.03125 435.414062 345.332031 435.289062 345.625 435.132812 C 345.917969 434.980469 346.191406 434.796875 346.449219 434.589844 C 346.703125 434.378906 346.9375 434.148438 347.148438 433.894531 C 347.363281 433.640625 347.546875 433.371094 347.703125 433.078125 L 348.890625 430.875 C 349.132812 430.410156 349.296875 429.917969 349.382812 429.402344 L 361.730469 432.699219 L 355.195312 420.601562 L 348.621094 418.847656 C 347.355469 418.511719 346.082031 418.496094 344.808594 418.800781 L 318.328125 425.144531 C 316.910156 425.484375 315.589844 426.050781 314.371094 426.84375 C 313.148438 427.640625 312.097656 428.617188 311.214844 429.773438 L 245.039062 516.808594 L 245.035156 516.8125 C 244.539062 517.457031 244.15625 518.164062 243.894531 518.9375 C 243.632812 519.710938 243.503906 520.503906 243.503906 521.320312 C 243.507812 522.136719 243.640625 522.929688 243.90625 523.699219 C 244.175781 524.46875 244.558594 525.175781 245.0625 525.820312 C 245.570312 526.484375 246.171875 527.050781 246.867188 527.519531 C 247.5625 527.984375 248.3125 528.332031 249.121094 528.550781 C 249.929688 528.773438 250.75 528.859375 251.585938 528.8125 C 252.421875 528.761719 253.230469 528.582031 254.007812 528.269531 L 306.800781 507.574219 L 345.511719 532.25 C 346.785156 533.058594 348.179688 533.460938 349.691406 533.457031 C 350.851562 533.460938 351.960938 533.214844 353.007812 532.714844 L 406.117188 507.546875 L 456.910156 532.652344 C 457.507812 532.941406 458.128906 533.15625 458.78125 533.289062 C 459.429688 533.421875 460.085938 533.472656 460.75 533.4375 C 461.410156 533.40625 462.058594 533.289062 462.691406 533.089844 C 463.324219 532.890625 463.921875 532.617188 464.484375 532.265625 L 504.386719 507.15625 L 555.964844 527.625 C 556.738281 527.9375 557.542969 528.121094 558.375 528.175781 C 559.210938 528.226562 560.03125 528.144531 560.835938 527.929688 C 561.644531 527.710938 562.394531 527.371094 563.09375 526.910156 C 563.789062 526.449219 564.394531 525.886719 564.90625 525.226562 C 565.414062 524.589844 565.800781 523.886719 566.074219 523.121094 C 566.347656 522.351562 566.488281 521.5625 566.496094 520.746094 C 566.503906 519.933594 566.378906 519.136719 566.125 518.363281 C 565.871094 517.589844 565.496094 516.878906 565.003906 516.230469 Z M 565.003906 516.230469 " fill-opacity="1" fill-rule="nonzero"/><path fill="#000000" d="M 343.460938 377.695312 L 400.550781 483.351562 C 400.996094 484.164062 401.617188 484.808594 402.414062 485.28125 C 403.210938 485.753906 404.074219 485.992188 405 485.992188 C 405.925781 485.992188 406.789062 485.753906 407.585938 485.28125 C 408.386719 484.808594 409.007812 484.164062 409.449219 483.351562 L 466.539062 377.695312 C 466.578125 377.621094 466.621094 377.542969 466.65625 377.464844 C 467.253906 376.175781 467.8125 374.871094 468.328125 373.546875 C 468.84375 372.222656 469.316406 370.882812 469.75 369.53125 C 470.183594 368.179688 470.570312 366.8125 470.917969 365.4375 C 471.265625 364.058594 471.566406 362.671875 471.828125 361.273438 C 472.085938 359.878906 472.304688 358.476562 472.476562 357.066406 C 472.644531 355.65625 472.773438 354.242188 472.855469 352.824219 C 472.941406 351.40625 472.980469 349.984375 472.972656 348.566406 C 472.96875 347.144531 472.917969 345.726562 472.820312 344.308594 C 472.726562 342.890625 472.585938 341.476562 472.40625 340.070312 C 472.222656 338.660156 471.992188 337.257812 471.722656 335.863281 C 471.453125 334.46875 471.136719 333.085938 470.777344 331.710938 C 470.421875 330.335938 470.019531 328.976562 469.578125 327.625 C 469.132812 326.277344 468.648438 324.941406 468.121094 323.621094 C 467.59375 322.304688 467.027344 321.003906 466.417969 319.71875 C 465.808594 318.433594 465.160156 317.171875 464.472656 315.929688 C 463.785156 314.6875 463.058594 313.464844 462.296875 312.269531 C 461.53125 311.070312 460.730469 309.898438 459.890625 308.753906 C 459.054688 307.605469 458.183594 306.484375 457.273438 305.394531 C 456.367188 304.300781 455.425781 303.238281 454.449219 302.203125 C 453.476562 301.171875 452.46875 300.167969 451.433594 299.199219 C 450.394531 298.226562 449.328125 297.292969 448.234375 296.386719 C 447.136719 295.484375 446.011719 294.617188 444.863281 293.78125 C 443.710938 292.949219 442.535156 292.152344 441.335938 291.394531 C 440.136719 290.636719 438.914062 289.914062 437.667969 289.230469 C 436.421875 288.546875 435.15625 287.90625 433.871094 287.300781 C 432.585938 286.699219 431.28125 286.136719 429.960938 285.613281 C 428.640625 285.09375 427.304688 284.613281 425.953125 284.175781 C 424.601562 283.738281 423.238281 283.34375 421.859375 282.992188 C 420.484375 282.636719 419.097656 282.328125 417.703125 282.0625 C 416.308594 281.796875 414.90625 281.578125 413.496094 281.398438 C 412.089844 281.222656 410.675781 281.089844 409.257812 281 C 407.839844 280.910156 406.421875 280.867188 405 280.867188 C 403.578125 280.867188 402.160156 280.910156 400.742188 281 C 399.324219 281.089844 397.914062 281.222656 396.503906 281.398438 C 395.09375 281.578125 393.691406 281.796875 392.296875 282.0625 C 390.902344 282.328125 389.515625 282.636719 388.140625 282.992188 C 386.761719 283.34375 385.398438 283.738281 384.046875 284.175781 C 382.699219 284.613281 381.359375 285.09375 380.039062 285.613281 C 378.71875 286.136719 377.414062 286.699219 376.128906 287.300781 C 374.84375 287.90625 373.578125 288.546875 372.332031 289.230469 C 371.085938 289.914062 369.863281 290.636719 368.664062 291.394531 C 367.464844 292.152344 366.289062 292.949219 365.136719 293.78125 C 363.988281 294.617188 362.863281 295.484375 361.765625 296.386719 C 360.671875 297.292969 359.605469 298.226562 358.566406 299.199219 C 357.53125 300.167969 356.523438 301.171875 355.550781 302.203125 C 354.574219 303.238281 353.632812 304.300781 352.726562 305.394531 C 351.816406 306.484375 350.945312 307.605469 350.109375 308.753906 C 349.269531 309.898438 348.46875 311.070312 347.703125 312.269531 C 346.941406 313.464844 346.214844 314.6875 345.527344 315.929688 C 344.839844 317.171875 344.191406 318.433594 343.582031 319.71875 C 342.972656 321.003906 342.40625 322.304688 341.878906 323.621094 C 341.351562 324.941406 340.867188 326.277344 340.421875 327.625 C 339.980469 328.976562 339.578125 330.335938 339.222656 331.710938 C 338.863281 333.085938 338.546875 334.46875 338.277344 335.863281 C 338.007812 337.257812 337.777344 338.660156 337.597656 340.070312 C 337.414062 341.476562 337.273438 342.890625 337.179688 344.308594 C 337.082031 345.726562 337.035156 347.144531 337.027344 348.566406 C 337.023438 349.984375 337.058594 351.40625 337.144531 352.824219 C 337.226562 354.242188 337.355469 355.65625 337.527344 357.066406 C 337.699219 358.476562 337.914062 359.878906 338.171875 361.273438 C 338.433594 362.671875 338.734375 364.058594 339.082031 365.4375 C 339.429688 366.8125 339.816406 368.179688 340.25 369.53125 C 340.683594 370.882812 341.15625 372.222656 341.671875 373.546875 C 342.1875 374.871094 342.746094 376.175781 343.34375 377.464844 C 343.382812 377.542969 343.421875 377.621094 343.460938 377.695312 Z M 363.960938 307.957031 C 365.148438 306.761719 366.386719 305.625 367.675781 304.539062 C 368.964844 303.453125 370.296875 302.425781 371.675781 301.453125 C 373.050781 300.484375 374.46875 299.578125 375.925781 298.730469 C 377.382812 297.886719 378.875 297.105469 380.398438 296.390625 C 381.925781 295.671875 383.480469 295.023438 385.058594 294.445312 C 386.640625 293.863281 388.246094 293.355469 389.871094 292.914062 C 391.5 292.472656 393.140625 292.105469 394.800781 291.808594 C 396.457031 291.511719 398.125 291.289062 399.804688 291.136719 C 401.480469 290.984375 403.164062 290.90625 404.847656 290.902344 C 406.53125 290.898438 408.214844 290.96875 409.890625 291.109375 C 411.570312 291.253906 413.238281 291.46875 414.898438 291.757812 C 416.558594 292.042969 418.203125 292.402344 419.832031 292.835938 C 421.460938 293.265625 423.066406 293.769531 424.652344 294.339844 C 426.238281 294.910156 427.792969 295.550781 429.324219 296.257812 C 430.851562 296.96875 432.347656 297.738281 433.808594 298.578125 C 435.269531 299.417969 436.691406 300.316406 438.074219 301.277344 C 439.457031 302.242188 440.796875 303.261719 442.089844 304.339844 C 443.382812 305.417969 444.628906 306.554688 445.824219 307.742188 C 447.019531 308.929688 448.160156 310.167969 449.246094 311.453125 C 450.332031 312.742188 451.363281 314.074219 452.332031 315.449219 C 453.304688 316.828125 454.210938 318.242188 455.058594 319.699219 C 455.90625 321.15625 456.6875 322.648438 457.40625 324.171875 C 458.121094 325.695312 458.769531 327.25 459.351562 328.832031 C 459.933594 330.410156 460.445312 332.015625 460.886719 333.640625 C 461.328125 335.269531 461.699219 336.910156 461.996094 338.566406 C 462.292969 340.226562 462.519531 341.894531 462.671875 343.570312 C 462.824219 345.25 462.902344 346.929688 462.910156 348.617188 C 462.914062 350.300781 462.847656 351.984375 462.707031 353.660156 C 462.566406 355.339844 462.351562 357.011719 462.066406 358.671875 C 461.78125 360.332031 461.421875 361.976562 460.992188 363.605469 C 460.5625 365.234375 460.0625 366.839844 459.492188 368.425781 C 458.921875 370.011719 458.28125 371.570312 457.574219 373.097656 L 405 470.402344 L 352.425781 373.097656 C 351.800781 371.769531 351.226562 370.417969 350.707031 369.042969 C 350.1875 367.667969 349.71875 366.277344 349.304688 364.867188 C 348.890625 363.457031 348.535156 362.03125 348.230469 360.59375 C 347.925781 359.15625 347.675781 357.707031 347.484375 356.25 C 347.289062 354.792969 347.152344 353.332031 347.074219 351.867188 C 346.992188 350.398438 346.96875 348.929688 347 347.460938 C 347.03125 345.992188 347.121094 344.527344 347.265625 343.0625 C 347.410156 341.601562 347.609375 340.144531 347.863281 338.699219 C 348.121094 337.25 348.433594 335.816406 348.800781 334.394531 C 349.164062 332.96875 349.585938 331.5625 350.0625 330.171875 C 350.535156 328.78125 351.0625 327.410156 351.640625 326.0625 C 352.222656 324.710938 352.851562 323.382812 353.535156 322.082031 C 354.214844 320.78125 354.945312 319.507812 355.726562 318.261719 C 356.503906 317.015625 357.332031 315.800781 358.203125 314.617188 C 359.078125 313.4375 359.992188 312.289062 360.953125 311.175781 C 361.914062 310.066406 362.917969 308.992188 363.960938 307.957031 Z M 363.960938 307.957031 " fill-opacity="1" fill-rule="nonzero"/><path fill="#000000" d="M 405 371.050781 C 405.898438 371.042969 406.792969 370.988281 407.6875 370.894531 C 408.582031 370.796875 409.464844 370.65625 410.34375 370.472656 C 411.226562 370.289062 412.09375 370.0625 412.949219 369.792969 C 413.808594 369.523438 414.648438 369.214844 415.476562 368.863281 C 416.300781 368.511719 417.109375 368.121094 417.898438 367.691406 C 418.6875 367.261719 419.453125 366.792969 420.195312 366.289062 C 420.9375 365.78125 421.652344 365.242188 422.34375 364.664062 C 423.03125 364.089844 423.691406 363.480469 424.320312 362.839844 C 424.953125 362.199219 425.550781 361.53125 426.113281 360.832031 C 426.675781 360.132812 427.207031 359.40625 427.699219 358.65625 C 428.191406 357.90625 428.648438 357.132812 429.066406 356.335938 C 429.480469 355.542969 429.859375 354.726562 430.199219 353.894531 C 430.535156 353.0625 430.832031 352.214844 431.085938 351.355469 C 431.339844 350.492188 431.550781 349.621094 431.722656 348.738281 C 431.890625 347.855469 432.015625 346.96875 432.097656 346.074219 C 432.179688 345.179688 432.21875 344.28125 432.210938 343.382812 C 432.207031 342.484375 432.15625 341.589844 432.0625 340.695312 C 431.96875 339.804688 431.832031 338.917969 431.648438 338.035156 C 431.46875 337.15625 431.246094 336.289062 430.980469 335.429688 C 430.714844 334.570312 430.40625 333.726562 430.058594 332.902344 C 429.710938 332.074219 429.320312 331.261719 428.894531 330.472656 C 428.464844 329.683594 428 328.917969 427.496094 328.171875 C 426.996094 327.429688 426.457031 326.710938 425.882812 326.019531 C 425.308594 325.328125 424.703125 324.664062 424.066406 324.035156 C 423.425781 323.402344 422.757812 322.800781 422.0625 322.234375 C 421.367188 321.667969 420.640625 321.136719 419.894531 320.640625 C 419.144531 320.148438 418.371094 319.6875 417.578125 319.269531 C 416.785156 318.847656 415.972656 318.46875 415.140625 318.128906 C 414.308594 317.789062 413.464844 317.488281 412.601562 317.230469 C 411.742188 316.972656 410.871094 316.757812 409.988281 316.585938 C 409.109375 316.414062 408.21875 316.289062 407.324219 316.203125 C 406.429688 316.117188 405.535156 316.078125 404.636719 316.078125 C 403.738281 316.082031 402.84375 316.128906 401.949219 316.21875 C 401.054688 316.3125 400.167969 316.445312 399.289062 316.621094 C 398.40625 316.800781 397.539062 317.019531 396.679688 317.285156 C 395.820312 317.546875 394.976562 317.851562 394.148438 318.199219 C 393.316406 318.542969 392.507812 318.929688 391.714844 319.355469 C 390.925781 319.78125 390.15625 320.242188 389.410156 320.742188 C 388.664062 321.242188 387.945312 321.78125 387.253906 322.351562 C 386.558594 322.921875 385.894531 323.527344 385.261719 324.160156 C 384.628906 324.796875 384.027344 325.464844 383.457031 326.160156 C 382.886719 326.855469 382.355469 327.574219 381.855469 328.324219 C 381.359375 329.070312 380.898438 329.839844 380.476562 330.632812 C 380.050781 331.425781 379.667969 332.238281 379.328125 333.066406 C 378.984375 333.898438 378.683594 334.742188 378.421875 335.601562 C 378.160156 336.464844 377.945312 337.332031 377.769531 338.214844 C 377.59375 339.097656 377.460938 339.984375 377.375 340.878906 C 377.289062 341.773438 377.242188 342.667969 377.242188 343.566406 C 377.25 344.46875 377.296875 345.371094 377.390625 346.273438 C 377.488281 347.171875 377.625 348.0625 377.804688 348.949219 C 377.988281 349.835938 378.210938 350.710938 378.480469 351.574219 C 378.746094 352.4375 379.054688 353.289062 379.40625 354.121094 C 379.757812 354.953125 380.148438 355.769531 380.578125 356.566406 C 381.007812 357.359375 381.476562 358.132812 381.984375 358.882812 C 382.492188 359.632812 383.03125 360.355469 383.609375 361.050781 C 384.1875 361.746094 384.796875 362.414062 385.4375 363.046875 C 386.082031 363.683594 386.753906 364.289062 387.457031 364.859375 C 388.15625 365.429688 388.886719 365.964844 389.640625 366.460938 C 390.394531 366.960938 391.171875 367.421875 391.96875 367.84375 C 392.769531 368.269531 393.589844 368.648438 394.425781 368.992188 C 395.261719 369.335938 396.113281 369.636719 396.980469 369.894531 C 397.847656 370.152344 398.722656 370.371094 399.613281 370.542969 C 400.5 370.714844 401.394531 370.84375 402.292969 370.929688 C 403.195312 371.015625 404.097656 371.054688 405 371.050781 Z M 405 326.074219 C 405.570312 326.082031 406.140625 326.113281 406.710938 326.175781 C 407.277344 326.238281 407.84375 326.328125 408.402344 326.445312 C 408.960938 326.5625 409.515625 326.703125 410.058594 326.875 C 410.605469 327.046875 411.140625 327.242188 411.667969 327.46875 C 412.191406 327.691406 412.707031 327.941406 413.207031 328.214844 C 413.710938 328.488281 414.195312 328.785156 414.667969 329.105469 C 415.140625 329.429688 415.597656 329.773438 416.035156 330.140625 C 416.476562 330.503906 416.894531 330.894531 417.296875 331.300781 C 417.695312 331.707031 418.078125 332.132812 418.4375 332.578125 C 418.792969 333.023438 419.132812 333.484375 419.445312 333.960938 C 419.757812 334.441406 420.046875 334.933594 420.3125 335.4375 C 420.578125 335.945312 420.820312 336.464844 421.035156 336.992188 C 421.25 337.523438 421.4375 338.0625 421.601562 338.609375 C 421.761719 339.15625 421.898438 339.710938 422.003906 340.273438 C 422.113281 340.835938 422.191406 341.402344 422.242188 341.96875 C 422.296875 342.539062 422.320312 343.109375 422.316406 343.683594 C 422.3125 344.253906 422.28125 344.824219 422.222656 345.390625 C 422.160156 345.960938 422.074219 346.523438 421.960938 347.085938 C 421.84375 347.644531 421.703125 348.199219 421.53125 348.742188 C 421.363281 349.289062 421.167969 349.828125 420.945312 350.351562 C 420.726562 350.878906 420.476562 351.394531 420.207031 351.898438 C 419.933594 352.398438 419.636719 352.886719 419.316406 353.363281 C 418.996094 353.835938 418.652344 354.292969 418.289062 354.730469 C 417.925781 355.171875 417.539062 355.59375 417.132812 355.996094 C 416.726562 356.398438 416.300781 356.78125 415.859375 357.140625 C 415.414062 357.5 414.953125 357.839844 414.476562 358.152344 C 414 358.46875 413.507812 358.761719 413.003906 359.027344 C 412.5 359.296875 411.980469 359.539062 411.453125 359.753906 C 410.925781 359.96875 410.386719 360.160156 409.839844 360.324219 C 409.289062 360.488281 408.734375 360.625 408.175781 360.734375 C 407.613281 360.84375 407.050781 360.925781 406.480469 360.980469 C 405.910156 361.035156 405.339844 361.058594 404.769531 361.058594 C 404.199219 361.054688 403.628906 361.027344 403.058594 360.96875 C 402.488281 360.910156 401.925781 360.824219 401.363281 360.710938 C 400.804688 360.597656 400.25 360.457031 399.703125 360.289062 C 399.15625 360.125 398.621094 359.929688 398.09375 359.710938 C 397.566406 359.488281 397.050781 359.246094 396.546875 358.972656 C 396.042969 358.703125 395.554688 358.410156 395.078125 358.089844 C 394.605469 357.769531 394.148438 357.429688 393.707031 357.066406 C 393.265625 356.703125 392.84375 356.320312 392.4375 355.914062 C 392.035156 355.507812 391.652344 355.085938 391.289062 354.644531 C 390.929688 354.199219 390.589844 353.742188 390.273438 353.265625 C 389.957031 352.789062 389.664062 352.300781 389.394531 351.796875 C 389.125 351.292969 388.878906 350.773438 388.664062 350.246094 C 388.445312 349.71875 388.253906 349.179688 388.085938 348.632812 C 387.921875 348.085938 387.78125 347.53125 387.671875 346.972656 C 387.558594 346.410156 387.476562 345.847656 387.421875 345.277344 C 387.363281 344.707031 387.335938 344.136719 387.335938 343.566406 C 387.339844 342.992188 387.371094 342.417969 387.433594 341.84375 C 387.492188 341.273438 387.578125 340.703125 387.695312 340.140625 C 387.808594 339.574219 387.953125 339.019531 388.125 338.46875 C 388.292969 337.917969 388.492188 337.378906 388.714844 336.847656 C 388.9375 336.320312 389.183594 335.800781 389.460938 335.292969 C 389.734375 334.789062 390.03125 334.296875 390.355469 333.820312 C 390.675781 333.34375 391.019531 332.882812 391.386719 332.441406 C 391.753906 331.996094 392.144531 331.574219 392.550781 331.167969 C 392.960938 330.761719 393.390625 330.378906 393.835938 330.015625 C 394.28125 329.652344 394.746094 329.3125 395.226562 328.996094 C 395.707031 328.679688 396.199219 328.386719 396.707031 328.117188 C 397.21875 327.847656 397.738281 327.601562 398.269531 327.386719 C 398.804688 327.167969 399.34375 326.976562 399.898438 326.8125 C 400.449219 326.648438 401.007812 326.507812 401.570312 326.398438 C 402.136719 326.289062 402.703125 326.207031 403.277344 326.152344 C 403.851562 326.097656 404.425781 326.074219 405 326.074219 Z M 405 326.074219 " fill-opacity="1" fill-rule="nonzero"/></svg>