<svg xmlns="http://www.w3.org/2000/svg" xmlns:xlink="http://www.w3.org/1999/xlink" width="1080" zoomAndPan="magnify" viewBox="0 0 810 809.999993" height="1080" preserveAspectRatio="xMidYMid meet" version="1.0"><defs><clipPath id="a8bdb1ba3b"><path d="M 277.683594 280.46875 L 493.8125 280.46875 L 493.8125 471.257812 L 277.683594 471.257812 Z M 277.683594 280.46875 " clip-rule="nonzero"/></clipPath><clipPath id="2ad84fe17f"><path d="M 315.933594 280.46875 L 454.882812 280.46875 C 465.027344 280.46875 474.753906 284.496094 481.929688 291.671875 C 489.101562 298.84375 493.132812 308.574219 493.132812 318.71875 L 493.132812 433.007812 C 493.132812 443.152344 489.101562 452.882812 481.929688 460.054688 C 474.753906 467.230469 465.027344 471.257812 454.882812 471.257812 L 315.933594 471.257812 C 305.789062 471.257812 296.058594 467.230469 288.886719 460.054688 C 281.710938 452.882812 277.683594 443.152344 277.683594 433.007812 L 277.683594 318.71875 C 277.683594 308.574219 281.710938 298.84375 288.886719 291.671875 C 296.058594 284.496094 305.789062 280.46875 315.933594 280.46875 Z M 315.933594 280.46875 " clip-rule="nonzero"/></clipPath><clipPath id="e98a5b48d5"><path d="M 277.683594 280.472656 L 492.71875 280.472656 L 492.71875 470.828125 L 277.683594 470.828125 Z M 277.683594 280.472656 " clip-rule="nonzero"/></clipPath><clipPath id="75800d7bfd"><path d="M 315.929688 280.472656 L 454.871094 280.472656 C 465.015625 280.472656 474.742188 284.5 481.917969 291.675781 C 489.089844 298.847656 493.121094 308.574219 493.121094 318.71875 L 493.121094 433.003906 C 493.121094 443.148438 489.089844 452.875 481.917969 460.050781 C 474.742188 467.222656 465.015625 471.253906 454.871094 471.253906 L 315.929688 471.253906 C 305.785156 471.253906 296.058594 467.222656 288.886719 460.050781 C 281.710938 452.875 277.683594 443.148438 277.683594 433.003906 L 277.683594 318.71875 C 277.683594 308.574219 281.710938 298.847656 288.886719 291.675781 C 296.058594 284.5 305.785156 280.472656 315.929688 280.472656 Z M 315.929688 280.472656 " clip-rule="nonzero"/></clipPath><clipPath id="38dbfd19fe"><path d="M 356.257812 321.757812 L 542.175781 321.757812 L 542.175781 492.015625 L 356.257812 492.015625 Z M 356.257812 321.757812 " clip-rule="nonzero"/></clipPath><clipPath id="eb6a85fe1a"><path d="M 350.359375 332.171875 L 566 332.171875 L 566 484.785156 L 350.359375 484.785156 Z M 350.359375 332.171875 " clip-rule="nonzero"/></clipPath><clipPath id="a35d5d4f84"><path d="M 388.609375 332.171875 L 527.726562 332.171875 C 537.871094 332.171875 547.601562 336.203125 554.773438 343.375 C 561.945312 350.550781 565.976562 360.277344 565.976562 370.421875 L 565.976562 446.535156 C 565.976562 456.679688 561.945312 466.40625 554.773438 473.582031 C 547.601562 480.753906 537.871094 484.785156 527.726562 484.785156 L 388.609375 484.785156 C 378.464844 484.785156 368.738281 480.753906 361.5625 473.582031 C 354.390625 466.40625 350.359375 456.679688 350.359375 446.535156 L 350.359375 370.421875 C 350.359375 360.277344 354.390625 350.550781 361.5625 343.375 C 368.738281 336.203125 378.464844 332.171875 388.609375 332.171875 Z M 388.609375 332.171875 " clip-rule="nonzero"/></clipPath><clipPath id="e90b7b8b2e"><path d="M 350.359375 332.171875 L 565.964844 332.171875 L 565.964844 484.636719 L 350.359375 484.636719 Z M 350.359375 332.171875 " clip-rule="nonzero"/></clipPath><clipPath id="abe2cabe2c"><path d="M 388.609375 332.171875 L 527.714844 332.171875 C 537.859375 332.171875 547.585938 336.203125 554.761719 343.375 C 561.933594 350.546875 565.964844 360.277344 565.964844 370.421875 L 565.964844 446.527344 C 565.964844 456.671875 561.933594 466.398438 554.761719 473.574219 C 547.585938 480.746094 537.859375 484.773438 527.714844 484.773438 L 388.609375 484.773438 C 378.464844 484.773438 368.734375 480.746094 361.5625 473.574219 C 354.390625 466.398438 350.359375 456.671875 350.359375 446.527344 L 350.359375 370.421875 C 350.359375 360.277344 354.390625 350.546875 361.5625 343.375 C 368.734375 336.203125 378.464844 332.171875 388.609375 332.171875 Z M 388.609375 332.171875 " clip-rule="nonzero"/></clipPath><clipPath id="5a785e974d"><path d="M 244.023438 360.222656 L 431.464844 360.222656 L 431.464844 529.53125 L 244.023438 529.53125 Z M 244.023438 360.222656 " clip-rule="nonzero"/></clipPath><clipPath id="7e9937eb37"><path d="M 244.023438 370.207031 L 419.402344 370.207031 L 419.402344 519.148438 L 244.023438 519.148438 Z M 244.023438 370.207031 " clip-rule="nonzero"/></clipPath><clipPath id="7a2252cda5"><path d="M 508.082031 361.660156 L 542.175781 361.660156 L 542.175781 394.996094 L 508.082031 394.996094 Z M 508.082031 361.660156 " clip-rule="nonzero"/></clipPath><clipPath id="6f7840f20d"><path d="M 508.082031 361.660156 L 542.164062 361.660156 L 542.164062 394.984375 L 508.082031 394.984375 Z M 508.082031 361.660156 " clip-rule="nonzero"/></clipPath></defs><g clip-path="url(#a8bdb1ba3b)"><g clip-path="url(#2ad84fe17f)"><path fill="#ffffff" d="M 277.683594 280.46875 L 493.066406 280.46875 L 493.066406 471.257812 L 277.683594 471.257812 Z M 277.683594 280.46875 " fill-opacity="1" fill-rule="nonzero"/></g></g><g clip-path="url(#e98a5b48d5)"><g clip-path="url(#75800d7bfd)"><path stroke-linecap="butt" transform="matrix(0.881302, 0, 0, 0.881302, 277.68251, 280.472115)" fill="none" stroke-linejoin="miter" d="M 43.3985 0.000613592 L 201.053232 0.000613592 C 212.56408 0.000613592 223.600665 4.57038 231.742916 12.712632 C 239.880735 20.850451 244.454934 31.887036 244.454934 43.397883 L 244.454934 173.075538 C 244.454934 184.586386 239.880735 195.62297 231.742916 203.765222 C 223.600665 211.903041 212.56408 216.47724 201.053232 216.47724 L 43.3985 216.47724 C 31.887652 216.47724 20.851067 211.903041 12.713248 203.765222 C 4.570997 195.62297 0.00123025 184.586386 0.00123025 173.075538 L 0.00123025 43.397883 C 0.00123025 31.887036 4.570997 20.850451 12.713248 12.712632 C 20.851067 4.57038 31.887652 0.000613592 43.3985 0.000613592 Z M 43.3985 0.000613592 " stroke="#000000" stroke-width="27.232441" stroke-opacity="1" stroke-miterlimit="4"/></g></g><g clip-path="url(#38dbfd19fe)"><path fill="#ffffff" d="M 356.257812 321.757812 L 542.476562 321.757812 L 542.476562 492.015625 L 356.257812 492.015625 Z M 356.257812 321.757812 " fill-opacity="1" fill-rule="nonzero"/></g><g clip-path="url(#eb6a85fe1a)"><g clip-path="url(#a35d5d4f84)"><path fill="#ffffff" d="M 350.359375 332.171875 L 566.164062 332.171875 L 566.164062 484.785156 L 350.359375 484.785156 Z M 350.359375 332.171875 " fill-opacity="1" fill-rule="nonzero"/></g></g><g clip-path="url(#e90b7b8b2e)"><g clip-path="url(#abe2cabe2c)"><path stroke-linecap="butt" transform="matrix(0.881302, 0, 0, 0.881302, 350.360844, 332.173304)" fill="none" stroke-linejoin="miter" d="M 43.40004 -0.00162157 L 201.240948 -0.00162157 C 212.751797 -0.00162157 223.788383 4.572578 231.930636 12.710398 C 240.068456 20.848218 244.642655 31.889236 244.642655 43.400085 L 244.642655 129.75583 C 244.642655 141.266679 240.068456 152.303265 231.930636 160.445517 C 223.788383 168.583337 212.751797 173.153104 201.240948 173.153104 L 43.40004 173.153104 C 31.889191 173.153104 20.848172 168.583337 12.710352 160.445517 C 4.572532 152.303265 -0.00166716 141.266679 -0.00166716 129.75583 L -0.00166716 43.400085 C -0.00166716 31.889236 4.572532 20.848218 12.710352 12.710398 C 20.848172 4.572578 31.889191 -0.00162157 43.40004 -0.00162157 Z M 43.40004 -0.00162157 " stroke="#000000" stroke-width="27.232441" stroke-opacity="1" stroke-miterlimit="4"/></g></g><g clip-path="url(#5a785e974d)"><path fill="#ffffff" d="M 244.023438 360.222656 L 431.1875 360.222656 L 431.1875 529.53125 L 244.023438 529.53125 Z M 244.023438 360.222656 " fill-opacity="1" fill-rule="nonzero"/></g><g clip-path="url(#7e9937eb37)"><path fill="#000000" d="M 402.875 370.269531 L 260.550781 370.269531 C 251.441406 370.269531 244.023438 377.679688 244.023438 386.777344 L 244.023438 502.574219 C 244.023438 511.675781 251.441406 519.085938 260.550781 519.085938 L 402.875 519.085938 C 411.984375 519.085938 419.402344 511.675781 419.402344 502.574219 L 419.402344 386.777344 C 419.402344 377.679688 411.984375 370.269531 402.875 370.269531 Z M 257.472656 386.777344 C 257.472656 385.105469 258.875 383.703125 260.550781 383.703125 L 402.875 383.703125 C 404.550781 383.703125 405.953125 385.105469 405.953125 386.777344 L 405.953125 388.917969 L 333.296875 461.5 C 332.433594 462.363281 330.992188 462.363281 330.128906 461.5 L 257.472656 388.917969 Z M 405.953125 502.59375 C 405.953125 504.265625 404.550781 505.667969 402.875 505.667969 L 260.550781 505.667969 C 258.875 505.667969 257.472656 504.265625 257.472656 502.59375 L 257.472656 407.910156 L 320.605469 470.976562 C 323.558594 473.925781 327.5 475.5625 331.695312 475.5625 C 335.890625 475.5625 339.832031 473.945312 342.785156 470.976562 L 405.917969 407.910156 L 405.917969 502.59375 Z M 405.953125 502.59375 " fill-opacity="1" fill-rule="nonzero"/></g><g clip-path="url(#7a2252cda5)"><path fill="#ffffff" d="M 508.082031 361.660156 L 542.195312 361.660156 L 542.195312 394.996094 L 508.082031 394.996094 Z M 508.082031 361.660156 " fill-opacity="1" fill-rule="nonzero"/></g><g clip-path="url(#6f7840f20d)"><path stroke-linecap="butt" transform="matrix(0.881302, 0, 0, 0.881302, 508.081274, 361.661575)" fill="none" stroke-linejoin="miter" d="M 0.000859309 -0.00160939 L 38.673232 -0.00160939 L 38.673232 37.810884 L 0.000859309 37.810884 Z M 0.000859309 -0.00160939 " stroke="#000000" stroke-width="22.126358" stroke-opacity="1" stroke-miterlimit="4"/></g></svg>