<svg xmlns="http://www.w3.org/2000/svg" xmlns:xlink="http://www.w3.org/1999/xlink" width="20" zoomAndPan="magnify" viewBox="0 0 810 809.999993" height="20" preserveAspectRatio="xMidYMid meet" version="1.0"><defs><clipPath id="1ce9b93e30"><path d="M 6.8125 6.8125 L 803.3125 6.8125 L 803.3125 803.3125 L 6.8125 803.3125 Z M 6.8125 6.8125 " clip-rule="nonzero"/></clipPath></defs><g clip-path="url(#1ce9b93e30)"><path fill="#ffc000" d="M 404.996094 6.8125 C 185 6.8125 6.8125 185 6.8125 404.996094 C 6.8125 624.996094 185 803.183594 404.996094 803.183594 C 624.996094 803.183594 803.183594 624.996094 803.183594 404.996094 C 803.183594 185 624.996094 6.8125 404.996094 6.8125 Z M 404.996094 723.546875 C 229 723.546875 86.449219 580.996094 86.449219 404.996094 C 86.449219 229 229 86.449219 404.996094 86.449219 C 580.996094 86.449219 723.546875 229 723.546875 404.996094 C 723.546875 580.996094 580.996094 723.546875 404.996094 723.546875 Z M 404.996094 723.546875 " fill-opacity="1" fill-rule="nonzero"/></g><path fill="#ffc000" d="M 183.683594 425.613281 C 219.464844 450.386719 238.167969 454.875 269.003906 506.808594 C 299.839844 558.742188 305.234375 594.074219 313.351562 600.570312 C 321.464844 607.058594 362.039062 598.945312 383.136719 587.582031 C 404.234375 576.222656 405.023438 569.949219 424.71875 523.886719 C 452.03125 460.019531 496.390625 381.605469 530.472656 336.167969 C 564.550781 290.726562 636.308594 230.953125 639.554688 219.589844 C 642.800781 208.230469 608.71875 202.957031 576.257812 212.691406 C 543.800781 222.433594 475.425781 297.632812 434.140625 356.808594 C 388.277344 422.546875 371.976562 478.039062 363.863281 476.414062 C 355.746094 474.792969 339.890625 441.703125 317.171875 417.359375 C 294.449219 393.015625 270.507812 376.523438 242.917969 381.394531 C 215.332031 386.261719 167.179688 414.1875 183.683594 425.613281 " fill-opacity="1" fill-rule="nonzero"/></svg>