<svg xmlns="http://www.w3.org/2000/svg" xmlns:xlink="http://www.w3.org/1999/xlink" width="1080" zoomAndPan="magnify" viewBox="0 0 810 809.999993" height="1080" preserveAspectRatio="xMidYMid meet" version="1.0"><defs><clipPath id="921cf60d0d"><path d="M 222.292969 19 L 587.542969 19 L 587.542969 791 L 222.292969 791 Z M 222.292969 19 " clip-rule="nonzero"/></clipPath></defs><g clip-path="url(#921cf60d0d)"><path fill="#ffffff" d="M 503.398438 146.589844 L 587.695312 146.589844 L 587.695312 19.492188 L 480.054688 19.492188 L 480.054688 19.980469 C 338.527344 25.167969 309.347656 104.441406 306.917969 188.253906 L 306.59375 188.253906 L 306.59375 276.441406 L 222.292969 276.441406 L 222.292969 403.699219 L 306.59375 403.699219 L 306.59375 790.5 L 457.84375 790.5 L 457.84375 403.699219 L 566.296875 403.699219 L 587.695312 276.441406 L 457.84375 276.441406 L 457.84375 197.492188 C 457.84375 169.449219 476.648438 146.589844 503.398438 146.589844 Z M 503.398438 146.589844 " fill-opacity="1" fill-rule="nonzero"/></g></svg>