<svg xmlns="http://www.w3.org/2000/svg" xmlns:xlink="http://www.w3.org/1999/xlink" width="1080" zoomAndPan="magnify" viewBox="0 0 810 809.999993" height="1080" preserveAspectRatio="xMidYMid meet" version="1.0"><defs><clipPath id="f40a0f0c12"><path d="M 204.929688 243 L 447.179688 243 L 447.179688 567 L 204.929688 567 Z M 204.929688 243 " clip-rule="nonzero"/></clipPath><clipPath id="2c587234b5"><path d="M 350.273438 346.933594 L 460.304688 346.933594 L 460.304688 566.996094 L 350.273438 566.996094 Z M 350.273438 346.933594 " clip-rule="nonzero"/></clipPath><clipPath id="ff5096a280"><path d="M 350.273438 401.949219 L 350.273438 566.996094 L 460.304688 566.996094 L 460.304688 401.949219 L 405.289062 346.933594 Z M 350.273438 401.949219 " clip-rule="nonzero"/></clipPath><clipPath id="7b7159fe31"><path d="M 326.027344 324 L 605 324 L 605 567 L 326.027344 567 Z M 326.027344 324 " clip-rule="nonzero"/></clipPath></defs><g clip-path="url(#f40a0f0c12)"><path fill="#1b1b1b" d="M 443.011719 546.59375 L 417.617188 546.59375 L 417.617188 247.9375 C 417.617188 245.230469 415.414062 243.027344 412.707031 243.027344 L 239.425781 243.027344 C 236.71875 243.027344 234.515625 245.230469 234.515625 247.9375 L 234.515625 546.59375 L 209.121094 546.59375 C 206.8125 546.59375 204.929688 548.476562 204.929688 550.785156 L 204.929688 562.78125 C 204.929688 565.09375 206.8125 566.972656 209.121094 566.972656 L 443.011719 566.972656 C 445.324219 566.972656 447.203125 565.09375 447.203125 562.78125 L 447.203125 550.785156 C 447.203125 548.476562 445.324219 546.59375 443.011719 546.59375 Z M 240.105469 248.617188 L 412.03125 248.617188 L 412.03125 546.59375 L 352.902344 546.59375 L 352.902344 484.667969 C 352.902344 482.480469 351.121094 480.699219 348.929688 480.699219 L 303.207031 480.699219 C 301.015625 480.699219 299.234375 482.480469 299.234375 484.667969 L 299.234375 546.59375 L 240.105469 546.59375 Z M 304.824219 546.269531 L 304.824219 486.285156 L 347.3125 486.285156 L 347.3125 546.269531 Z M 441.613281 561.382812 L 210.519531 561.382812 L 210.519531 552.183594 L 441.613281 552.183594 Z M 289.386719 390.914062 L 262.15625 390.914062 C 259.964844 390.914062 258.183594 392.695312 258.183594 394.882812 L 258.183594 422.105469 C 258.183594 424.296875 259.964844 426.078125 262.15625 426.078125 L 289.386719 426.078125 C 291.578125 426.078125 293.359375 424.296875 293.359375 422.105469 L 293.359375 394.882812 C 293.359375 392.695312 291.578125 390.914062 289.386719 390.914062 Z M 287.769531 420.488281 L 263.773438 420.488281 L 263.773438 396.5 L 287.769531 396.5 Z M 312.453125 426.078125 L 339.683594 426.078125 C 341.871094 426.078125 343.65625 424.296875 343.65625 422.105469 L 343.65625 394.882812 C 343.65625 392.695312 341.871094 390.914062 339.683594 390.914062 L 312.453125 390.914062 C 310.261719 390.914062 308.480469 392.695312 308.480469 394.882812 L 308.480469 422.105469 C 308.480469 424.296875 310.261719 426.078125 312.453125 426.078125 Z M 314.070312 396.5 L 338.066406 396.5 L 338.066406 420.488281 L 314.070312 420.488281 Z M 362.746094 426.078125 L 389.976562 426.078125 C 392.167969 426.078125 393.949219 424.296875 393.949219 422.105469 L 393.949219 394.882812 C 393.949219 392.695312 392.167969 390.914062 389.976562 390.914062 L 362.746094 390.914062 C 360.558594 390.914062 358.773438 392.695312 358.773438 394.882812 L 358.773438 422.105469 C 358.773438 424.296875 360.558594 426.078125 362.746094 426.078125 Z M 364.363281 396.5 L 388.359375 396.5 L 388.359375 420.488281 L 364.363281 420.488281 Z M 289.386719 346.546875 L 262.15625 346.546875 C 259.964844 346.546875 258.183594 348.328125 258.183594 350.519531 L 258.183594 377.742188 C 258.183594 379.929688 259.964844 381.710938 262.15625 381.710938 L 289.386719 381.710938 C 291.578125 381.710938 293.359375 379.929688 293.359375 377.742188 L 293.359375 350.519531 C 293.359375 348.328125 291.578125 346.546875 289.386719 346.546875 Z M 287.769531 376.125 L 263.773438 376.125 L 263.773438 352.136719 L 287.769531 352.136719 Z M 312.453125 381.710938 L 339.683594 381.710938 C 341.871094 381.710938 343.65625 379.929688 343.65625 377.742188 L 343.65625 350.519531 C 343.65625 348.328125 341.871094 346.546875 339.683594 346.546875 L 312.453125 346.546875 C 310.261719 346.546875 308.480469 348.328125 308.480469 350.519531 L 308.480469 377.742188 C 308.480469 379.929688 310.261719 381.710938 312.453125 381.710938 Z M 314.070312 352.136719 L 338.066406 352.136719 L 338.066406 376.125 L 314.070312 376.125 Z M 362.746094 381.710938 L 389.976562 381.710938 C 392.167969 381.710938 393.949219 379.929688 393.949219 377.742188 L 393.949219 350.519531 C 393.949219 348.328125 392.167969 346.546875 389.976562 346.546875 L 362.746094 346.546875 C 360.558594 346.546875 358.773438 348.328125 358.773438 350.519531 L 358.773438 377.742188 C 358.773438 379.929688 360.558594 381.710938 362.746094 381.710938 Z M 364.363281 352.136719 L 388.359375 352.136719 L 388.359375 376.125 L 364.363281 376.125 Z M 289.386719 257.816406 L 262.15625 257.816406 C 259.964844 257.816406 258.183594 259.597656 258.183594 261.789062 L 258.183594 289.011719 C 258.183594 291.199219 259.964844 292.980469 262.15625 292.980469 L 289.386719 292.980469 C 291.578125 292.980469 293.359375 291.199219 293.359375 289.011719 L 293.359375 261.789062 C 293.359375 259.597656 291.578125 257.816406 289.386719 257.816406 Z M 287.769531 287.394531 L 263.773438 287.394531 L 263.773438 263.40625 L 287.769531 263.40625 Z M 312.453125 292.980469 L 339.683594 292.980469 C 341.871094 292.980469 343.65625 291.199219 343.65625 289.011719 L 343.65625 261.789062 C 343.65625 259.597656 341.871094 257.816406 339.683594 257.816406 L 312.453125 257.816406 C 310.261719 257.816406 308.480469 259.597656 308.480469 261.789062 L 308.480469 289.011719 C 308.480469 291.199219 310.261719 292.980469 312.453125 292.980469 Z M 314.070312 263.40625 L 338.066406 263.40625 L 338.066406 287.394531 L 314.070312 287.394531 Z M 362.746094 292.980469 L 389.976562 292.980469 C 392.167969 292.980469 393.949219 291.199219 393.949219 289.011719 L 393.949219 261.789062 C 393.949219 259.597656 392.167969 257.816406 389.976562 257.816406 L 362.746094 257.816406 C 360.558594 257.816406 358.773438 259.597656 358.773438 261.789062 L 358.773438 289.011719 C 358.773438 291.199219 360.558594 292.980469 362.746094 292.980469 Z M 364.363281 263.40625 L 388.359375 263.40625 L 388.359375 287.394531 L 364.363281 287.394531 Z M 289.386719 302.183594 L 262.15625 302.183594 C 259.964844 302.183594 258.183594 303.964844 258.183594 306.152344 L 258.183594 333.375 C 258.183594 335.566406 259.964844 337.347656 262.15625 337.347656 L 289.386719 337.347656 C 291.578125 337.347656 293.359375 335.566406 293.359375 333.375 L 293.359375 306.152344 C 293.359375 303.964844 291.578125 302.183594 289.386719 302.183594 Z M 287.769531 331.757812 L 263.773438 331.757812 L 263.773438 307.769531 L 287.769531 307.769531 Z M 312.453125 337.347656 L 339.683594 337.347656 C 341.871094 337.347656 343.65625 335.566406 343.65625 333.375 L 343.65625 306.152344 C 343.65625 303.964844 341.871094 302.183594 339.683594 302.183594 L 312.453125 302.183594 C 310.261719 302.183594 308.480469 303.964844 308.480469 306.152344 L 308.480469 333.375 C 308.480469 335.566406 310.261719 337.347656 312.453125 337.347656 Z M 314.070312 307.769531 L 338.066406 307.769531 L 338.066406 331.757812 L 314.070312 331.757812 Z M 362.746094 337.347656 L 389.976562 337.347656 C 392.167969 337.347656 393.949219 335.566406 393.949219 333.375 L 393.949219 306.152344 C 393.949219 303.964844 392.167969 302.183594 389.976562 302.183594 L 362.746094 302.183594 C 360.558594 302.183594 358.773438 303.964844 358.773438 306.152344 L 358.773438 333.375 C 358.773438 335.566406 360.558594 337.347656 362.746094 337.347656 Z M 364.363281 307.769531 L 388.359375 307.769531 L 388.359375 331.757812 L 364.363281 331.757812 Z M 289.386719 435.277344 L 262.15625 435.277344 C 259.964844 435.277344 258.183594 437.058594 258.183594 439.25 L 258.183594 466.472656 C 258.183594 468.660156 259.964844 470.441406 262.15625 470.441406 L 289.386719 470.441406 C 291.578125 470.441406 293.359375 468.660156 293.359375 466.472656 L 293.359375 439.25 C 293.359375 437.058594 291.578125 435.277344 289.386719 435.277344 Z M 287.769531 464.855469 L 263.773438 464.855469 L 263.773438 440.867188 L 287.769531 440.867188 Z M 312.453125 470.441406 L 339.683594 470.441406 C 341.871094 470.441406 343.65625 468.660156 343.65625 466.472656 L 343.65625 439.25 C 343.65625 437.058594 341.871094 435.277344 339.683594 435.277344 L 312.453125 435.277344 C 310.261719 435.277344 308.480469 437.058594 308.480469 439.25 L 308.480469 466.472656 C 308.480469 468.660156 310.261719 470.441406 312.453125 470.441406 Z M 314.070312 440.867188 L 338.066406 440.867188 L 338.066406 464.855469 L 314.070312 464.855469 Z M 362.746094 470.441406 L 389.976562 470.441406 C 392.167969 470.441406 393.949219 468.660156 393.949219 466.472656 L 393.949219 439.25 C 393.949219 437.058594 392.167969 435.277344 389.976562 435.277344 L 362.746094 435.277344 C 360.558594 435.277344 358.773438 437.058594 358.773438 439.25 L 358.773438 466.472656 C 358.773438 468.660156 360.558594 470.441406 362.746094 470.441406 Z M 364.363281 440.867188 L 388.359375 440.867188 L 388.359375 464.855469 L 364.363281 464.855469 Z M 364.363281 440.867188 " fill-opacity="1" fill-rule="nonzero"/></g><g clip-path="url(#2c587234b5)"><g clip-path="url(#ff5096a280)"><path fill="#ffffff" d="M 350.273438 566.996094 L 350.273438 346.933594 L 460.304688 346.933594 L 460.304688 566.996094 Z M 350.273438 566.996094 " fill-opacity="1" fill-rule="nonzero"/></g></g><g clip-path="url(#7b7159fe31)"><path fill="#1b1b1b" d="M 602.304688 418.851562 C 600.308594 416.664062 597.417969 416.421875 595.402344 416.421875 L 567.777344 416.421875 L 567.449219 415.722656 C 546.746094 373.722656 535.136719 351.832031 517.25 351.832031 L 502.195312 351.832031 L 502.195312 345.035156 C 502.203125 333.441406 492.773438 324 481.179688 324 L 448.976562 324 C 437.390625 324 427.96875 333.441406 427.96875 345.035156 L 427.96875 351.832031 L 412.90625 351.832031 C 395.027344 351.832031 383.410156 373.722656 362.699219 415.757812 L 362.277344 416.421875 L 334.742188 416.421875 C 332.746094 416.421875 329.859375 416.664062 327.867188 418.851562 C 325.777344 421.144531 326.054688 424.105469 326.207031 425.753906 C 327.417969 437.347656 332.503906 445.140625 340.519531 448.207031 C 338.535156 451.363281 337.34375 455.003906 337.34375 459.03125 L 342.210938 517.878906 C 342.210938 526.902344 348.34375 534.550781 356.898438 536.898438 L 356.898438 552.796875 C 356.898438 560.515625 363.175781 566.792969 370.894531 566.792969 L 400.265625 566.792969 C 407.976562 566.792969 414.261719 560.527344 414.261719 552.796875 L 414.261719 537.617188 L 515.894531 537.617188 L 515.894531 552.796875 C 515.894531 560.515625 522.171875 566.792969 529.890625 566.792969 L 559.261719 566.792969 C 566.972656 566.792969 573.25 560.527344 573.25 552.796875 L 573.25 536.941406 C 581.738281 534.664062 587.941406 527 587.925781 518.203125 L 592.828125 458.671875 C 592.828125 454.851562 591.636719 451.300781 589.65625 448.199219 C 597.644531 445.132812 602.738281 437.339844 603.945312 425.691406 C 604.089844 424.105469 604.367188 421.144531 602.304688 418.851562 Z M 436.386719 345.035156 C 436.386719 338.085938 442.035156 332.429688 448.976562 332.429688 L 481.179688 332.429688 C 488.128906 332.429688 493.777344 338.085938 493.777344 345.035156 L 493.777344 351.832031 L 436.386719 351.832031 Z M 370.265625 419.433594 C 388.347656 382.742188 400.085938 360.253906 412.90625 360.253906 L 517.257812 360.253906 C 530.078125 360.253906 541.816406 382.742188 559.878906 419.414062 L 561.746094 423.144531 L 562.121094 423.738281 L 367.996094 423.738281 L 368.695312 422.632812 Z M 334.601562 424.914062 C 334.601562 424.875 334.589844 424.859375 334.589844 424.839844 C 334.644531 424.839844 334.699219 424.839844 334.753906 424.839844 L 356.980469 424.839844 L 346.730469 441.078125 C 339.738281 440.21875 335.632812 434.820312 334.601562 424.914062 Z M 405.839844 552.796875 C 405.839844 555.882812 403.339844 558.382812 400.273438 558.382812 L 370.902344 558.382812 C 367.828125 558.382812 365.335938 555.882812 365.335938 552.796875 L 365.335938 537.617188 L 405.851562 537.617188 L 405.851562 552.796875 Z M 559.261719 558.382812 L 529.890625 558.382812 C 526.824219 558.382812 524.324219 555.882812 524.324219 552.796875 L 524.324219 537.617188 L 564.839844 537.617188 L 564.839844 552.796875 C 564.828125 555.871094 562.328125 558.382812 559.261719 558.382812 Z M 579.523438 517.871094 C 579.523438 523.808594 574.863281 528.765625 568.910156 529.1875 L 361.378906 529.203125 C 355.355469 528.835938 350.648438 523.859375 350.640625 517.519531 L 345.761719 458.679688 C 345.761719 454.753906 347.789062 451.148438 351.167969 449.03125 C 351.699219 448.71875 352.136719 448.28125 352.476562 447.769531 L 362.5625 432.167969 L 567.589844 432.167969 L 577.703125 447.769531 C 578.035156 448.28125 578.476562 448.710938 579.003906 449.03125 C 582.382812 451.167969 584.417969 454.761719 584.429688 458.332031 Z M 595.5625 424.875 C 594.53125 434.820312 590.417969 440.238281 583.414062 441.078125 L 572.871094 424.839844 L 595.410156 424.839844 C 595.484375 424.839844 595.535156 424.839844 595.574219 424.839844 C 595.5625 424.839844 595.5625 424.859375 595.5625 424.875 Z M 595.5625 424.875 " fill-opacity="1" fill-rule="nonzero"/></g><path fill="#1b1b1b" d="M 397.828125 464.789062 L 375.796875 464.789062 C 368.078125 464.789062 361.792969 471.074219 361.792969 478.800781 L 361.792969 484.300781 C 361.792969 492.019531 368.070312 498.296875 375.796875 498.296875 L 397.816406 498.296875 C 405.527344 498.296875 411.8125 492.027344 411.8125 484.300781 L 411.8125 478.800781 C 411.8125 471.074219 405.535156 464.789062 397.828125 464.789062 Z M 403.394531 484.300781 C 403.394531 487.382812 400.890625 489.867188 397.828125 489.867188 L 375.796875 489.867188 C 372.722656 489.867188 370.222656 487.382812 370.222656 484.300781 L 370.222656 478.800781 C 370.222656 475.71875 372.722656 473.214844 375.796875 473.214844 L 397.816406 473.214844 C 400.882812 473.214844 403.386719 475.71875 403.386719 478.800781 L 403.386719 484.300781 Z M 403.394531 484.300781 " fill-opacity="1" fill-rule="nonzero"/><path fill="#1b1b1b" d="M 504.222656 484.058594 L 425.953125 484.058594 C 423.628906 484.058594 421.738281 485.949219 421.738281 488.28125 L 421.738281 511.523438 C 421.738281 513.855469 423.628906 515.746094 425.953125 515.746094 L 504.222656 515.746094 C 506.542969 515.746094 508.4375 513.855469 508.4375 511.523438 L 508.4375 488.273438 C 508.425781 485.949219 506.542969 484.058594 504.222656 484.058594 Z M 500.007812 507.308594 L 430.15625 507.308594 L 430.15625 492.476562 L 500.007812 492.476562 Z M 500.007812 507.308594 " fill-opacity="1" fill-rule="nonzero"/><path fill="#1b1b1b" d="M 554.359375 464.789062 L 532.355469 464.789062 C 524.636719 464.789062 518.34375 471.074219 518.34375 478.800781 L 518.34375 484.300781 C 518.34375 492.019531 524.628906 498.296875 532.355469 498.296875 L 554.359375 498.296875 C 562.066406 498.296875 568.363281 492.027344 568.363281 484.300781 L 568.363281 478.800781 C 568.363281 471.074219 562.078125 464.789062 554.359375 464.789062 Z M 559.941406 484.300781 C 559.941406 487.382812 557.441406 489.867188 554.367188 489.867188 L 532.363281 489.867188 C 529.289062 489.867188 526.78125 487.382812 526.78125 484.300781 L 526.78125 478.800781 C 526.78125 475.71875 529.289062 473.214844 532.363281 473.214844 L 554.367188 473.214844 C 557.441406 473.214844 559.941406 475.71875 559.941406 478.800781 Z M 559.941406 484.300781 " fill-opacity="1" fill-rule="nonzero"/></svg>