<svg xmlns="http://www.w3.org/2000/svg" xmlns:xlink="http://www.w3.org/1999/xlink" width="1080" zoomAndPan="magnify" viewBox="0 0 810 809.999993" height="1080" preserveAspectRatio="xMidYMid meet" version="1.0"><defs><clipPath id="77a3f6adf5"><path d="M 154.222656 146 L 652 146 L 652 662 L 154.222656 662 Z M 154.222656 146 " clip-rule="nonzero"/></clipPath></defs><g clip-path="url(#77a3f6adf5)"><path fill="#ffc000" d="M 155.058594 322.871094 C 155.828125 299.980469 161.636719 276.90625 173.652344 257.269531 C 184.269531 239.921875 207.105469 223.769531 226.101562 216.660156 C 253.664062 206.339844 279.078125 216.902344 290.03125 244.027344 C 297.316406 262.058594 300.90625 282.636719 304.066406 301.753906 C 306.746094 317.945312 308.390625 335.136719 302.070312 350.285156 C 295.636719 365.707031 281.878906 376.75 268.035156 386.117188 C 265.53125 387.8125 288.691406 427.566406 291.042969 431.40625 C 299.890625 445.867188 309.871094 459.636719 320.859375 472.546875 C 332.105469 485.765625 344.402344 498.09375 357.617188 509.351562 C 368.007812 518.207031 378.902344 531.128906 392.832031 534.230469 C 401.078125 536.066406 407.621094 531.992188 413.101562 526.234375 C 429.144531 509.378906 445.546875 504.363281 468.515625 509.738281 C 483.941406 513.34375 498.324219 520.117188 512.554688 526.898438 C 525.464844 533.050781 540.585938 537.867188 551.3125 547.589844 C 570.21875 564.71875 564.179688 593.34375 552.660156 612.789062 C 540.96875 632.523438 521.546875 647.410156 500.265625 654.882812 C 471.957031 664.820312 440.4375 663.015625 411.785156 654.105469 C 383.136719 645.195312 357.027344 629.546875 332.621094 612.09375 C 305.261719 592.523438 279.703125 570.371094 256.753906 545.765625 C 217.492188 503.660156 180.394531 448.96875 163.902344 390.777344 C 157.585938 368.484375 154.292969 345.679688 155.058594 322.871094 Z M 396.4375 186.976562 C 385.390625 186.039062 375.992188 178.371094 375.992188 166.539062 C 375.992188 156.164062 385.421875 145.171875 396.4375 146.101562 C 415.621094 147.726562 434.699219 151.363281 453.136719 156.886719 C 520.878906 177.191406 580.105469 221.835938 615.089844 283.726562 C 643.398438 333.808594 656.078125 394.269531 649.160156 451.527344 C 647.832031 462.535156 640.867188 471.964844 628.714844 471.964844 C 618.617188 471.964844 606.945312 462.503906 608.273438 451.527344 C 609.257812 443.375 609.804688 435.175781 609.957031 426.960938 C 610.078125 420.652344 609.96875 414.335938 609.636719 408.03125 C 609.457031 404.59375 609.214844 401.160156 608.902344 397.734375 C 608.707031 395.558594 608.476562 393.382812 608.234375 391.210938 C 607.429688 384.015625 608.535156 393.015625 607.933594 388.726562 C 598.421875 320.71875 560.132812 259.070312 501.609375 222.925781 C 478.8125 208.847656 459.582031 200.753906 433.828125 193.914062 C 425.015625 191.574219 416.089844 189.652344 407.085938 188.21875 C 404.128906 187.75 400.9375 187.4375 406.214844 188.03125 C 404.773438 187.871094 403.335938 187.667969 401.890625 187.507812 C 400.074219 187.304688 398.257812 187.128906 396.4375 186.976562 Z M 388.070312 265.574219 C 389.210938 265.65625 390.351562 265.769531 391.492188 265.875 C 392.253906 265.945312 393.015625 266.0625 393.777344 266.125 C 397.804688 266.449219 389.179688 265.351562 392.53125 265.945312 C 398.339844 266.972656 404.117188 267.914062 409.859375 269.292969 C 417.222656 271.066406 424.480469 273.253906 431.597656 275.84375 C 438.660156 278.414062 444.585938 281.019531 453.300781 285.808594 C 493.988281 308.167969 521.835938 347.574219 530.003906 394.195312 C 531.585938 403.230469 532.230469 414.253906 532.011719 424.769531 C 531.929688 428.617188 531.730469 432.460938 531.40625 436.296875 C 531.261719 438.003906 531.066406 439.710938 530.894531 441.414062 C 530.402344 446.269531 531.261719 438.90625 531.007812 440.695312 C 529.453125 451.605469 533.691406 462.648438 545.289062 465.835938 C 554.875 468.46875 568.867188 462.558594 570.4375 451.5625 C 577.214844 404.035156 568.558594 354.535156 542.097656 313.914062 C 515.589844 273.214844 474.375 244.722656 427.796875 231.714844 C 414.863281 228.105469 401.460938 225.707031 388.066406 224.699219 C 377.042969 223.867188 367.625 234.6875 367.625 245.136719 C 367.625 256.886719 377.011719 264.738281 388.070312 265.574219 Z M 381.484375 341.152344 C 386.125 341.667969 377.441406 340.320312 380.222656 340.980469 C 381.878906 341.375 383.59375 341.566406 385.261719 341.917969 C 390.230469 342.96875 395.132812 344.363281 399.914062 346.074219 C 403.453125 347.339844 409.132812 349.929688 415.074219 353.523438 C 421.421875 357.363281 426.378906 361.339844 431.699219 366.855469 C 443.496094 379.070312 450.574219 394.445312 453.617188 411.046875 C 454.285156 414.675781 454.296875 415.132812 454.546875 419.652344 C 454.707031 422.613281 454.757812 425.578125 454.679688 428.542969 C 454.609375 431.132812 454.367188 433.691406 454.203125 436.273438 C 453.839844 441.886719 454.84375 432.421875 454.199219 436.480469 C 452.472656 447.371094 456.996094 458.46875 468.476562 461.621094 C 478.199219 464.292969 491.886719 458.3125 493.628906 447.347656 C 499.773438 408.609375 489.1875 369.222656 462.503906 339.96875 C 441.617188 317.074219 411.988281 303.675781 381.484375 300.28125 C 370.492188 299.058594 361.039062 310.550781 361.039062 320.71875 C 361.039062 332.78125 370.460938 339.925781 381.484375 341.152344 Z M 381.484375 341.152344 " fill-opacity="1" fill-rule="nonzero"/></g></svg>