<svg xmlns="http://www.w3.org/2000/svg" xmlns:xlink="http://www.w3.org/1999/xlink" width="1080" zoomAndPan="magnify" viewBox="0 0 810 809.999993" height="1080" preserveAspectRatio="xMidYMid meet" version="1.0"><defs><clipPath id="b147581fd1"><path d="M 523.910156 217.652344 L 585.757812 217.652344 L 585.757812 279.496094 L 523.910156 279.496094 Z M 523.910156 217.652344 " clip-rule="nonzero"/></clipPath><clipPath id="98df5b7531"><path d="M 271.234375 271.234375 L 538.925781 271.234375 L 538.925781 538.925781 L 271.234375 538.925781 Z M 271.234375 271.234375 " clip-rule="nonzero"/></clipPath><clipPath id="25cfdf7bd5"><path d="M 105 105 L 705 105 L 705 705 L 105 705 Z M 105 105 " clip-rule="nonzero"/></clipPath></defs><g clip-path="url(#b147581fd1)"><path fill="#ffffff" d="M 586.148438 248.769531 C 586.148438 249.789062 586.097656 250.804688 585.996094 251.820312 C 585.898438 252.832031 585.746094 253.839844 585.550781 254.839844 C 585.351562 255.839844 585.101562 256.828125 584.808594 257.800781 C 584.511719 258.777344 584.167969 259.734375 583.777344 260.675781 C 583.386719 261.621094 582.953125 262.539062 582.472656 263.4375 C 581.992188 264.335938 581.46875 265.210938 580.902344 266.058594 C 580.335938 266.90625 579.730469 267.722656 579.082031 268.511719 C 578.4375 269.296875 577.753906 270.050781 577.03125 270.773438 C 576.3125 271.492188 575.558594 272.175781 574.769531 272.824219 C 573.980469 273.46875 573.164062 274.078125 572.316406 274.644531 C 571.46875 275.210938 570.597656 275.730469 569.699219 276.210938 C 568.800781 276.691406 567.878906 277.128906 566.9375 277.519531 C 565.996094 277.910156 565.039062 278.25 564.0625 278.546875 C 563.085938 278.84375 562.097656 279.089844 561.101562 279.289062 C 560.101562 279.488281 559.09375 279.636719 558.078125 279.738281 C 557.066406 279.835938 556.046875 279.886719 555.027344 279.886719 C 554.011719 279.886719 552.992188 279.835938 551.980469 279.738281 C 550.964844 279.636719 549.957031 279.488281 548.957031 279.289062 C 547.957031 279.089844 546.972656 278.84375 545.996094 278.546875 C 545.019531 278.25 544.0625 277.910156 543.121094 277.519531 C 542.179688 277.128906 541.257812 276.691406 540.359375 276.210938 C 539.460938 275.730469 538.589844 275.210938 537.742188 274.644531 C 536.894531 274.078125 536.074219 273.46875 535.289062 272.824219 C 534.5 272.175781 533.746094 271.492188 533.027344 270.773438 C 532.304688 270.050781 531.621094 269.296875 530.976562 268.511719 C 530.328125 267.722656 529.722656 266.90625 529.15625 266.058594 C 528.589844 265.210938 528.066406 264.335938 527.585938 263.4375 C 527.105469 262.539062 526.671875 261.621094 526.28125 260.675781 C 525.890625 259.734375 525.546875 258.777344 525.25 257.800781 C 524.957031 256.828125 524.707031 255.839844 524.507812 254.839844 C 524.3125 253.839844 524.160156 252.832031 524.0625 251.820312 C 523.960938 250.804688 523.910156 249.789062 523.910156 248.769531 C 523.910156 247.75 523.960938 246.734375 524.0625 245.71875 C 524.160156 244.703125 524.3125 243.699219 524.507812 242.699219 C 524.707031 241.699219 524.957031 240.710938 525.25 239.738281 C 525.546875 238.761719 525.890625 237.800781 526.28125 236.859375 C 526.671875 235.917969 527.105469 235 527.585938 234.101562 C 528.066406 233.203125 528.589844 232.328125 529.15625 231.480469 C 529.722656 230.632812 530.328125 229.816406 530.976562 229.027344 C 531.621094 228.242188 532.304688 227.488281 533.027344 226.765625 C 533.746094 226.046875 534.5 225.363281 535.289062 224.714844 C 536.074219 224.070312 536.894531 223.460938 537.742188 222.894531 C 538.589844 222.328125 539.460938 221.804688 540.359375 221.324219 C 541.257812 220.84375 542.179688 220.410156 543.121094 220.019531 C 544.0625 219.628906 545.019531 219.289062 545.996094 218.992188 C 546.972656 218.695312 547.957031 218.449219 548.957031 218.25 C 549.957031 218.050781 550.964844 217.902344 551.980469 217.800781 C 552.992188 217.703125 554.011719 217.652344 555.027344 217.652344 C 556.046875 217.652344 557.066406 217.703125 558.078125 217.800781 C 559.09375 217.902344 560.101562 218.050781 561.101562 218.25 C 562.097656 218.449219 563.085938 218.695312 564.0625 218.992188 C 565.039062 219.289062 565.996094 219.628906 566.9375 220.019531 C 567.878906 220.410156 568.800781 220.84375 569.699219 221.324219 C 570.597656 221.804688 571.46875 222.328125 572.316406 222.894531 C 573.164062 223.460938 573.980469 224.070312 574.769531 224.714844 C 575.558594 225.363281 576.3125 226.046875 577.03125 226.765625 C 577.753906 227.488281 578.4375 228.242188 579.082031 229.027344 C 579.730469 229.816406 580.335938 230.632812 580.902344 231.480469 C 581.46875 232.328125 581.992188 233.203125 582.472656 234.101562 C 582.953125 235 583.386719 235.917969 583.777344 236.859375 C 584.167969 237.800781 584.511719 238.761719 584.808594 239.738281 C 585.101562 240.710938 585.351562 241.699219 585.550781 242.699219 C 585.746094 243.699219 585.898438 244.703125 585.996094 245.71875 C 586.097656 246.734375 586.148438 247.75 586.148438 248.769531 Z M 586.148438 248.769531 " fill-opacity="1" fill-rule="nonzero"/></g><g clip-path="url(#98df5b7531)"><path fill="#ffffff" d="M 405.082031 271.234375 C 331.128906 271.234375 271.234375 331.128906 271.234375 405.082031 C 271.234375 479.03125 331.128906 538.925781 405.082031 538.925781 C 479.03125 538.925781 538.925781 479.03125 538.925781 405.082031 C 538.925781 331.128906 479.03125 271.234375 405.082031 271.234375 Z M 405.082031 512.15625 C 345.921875 512.15625 298.003906 464.242188 298.003906 405.082031 C 298.003906 345.921875 345.921875 298.003906 405.082031 298.003906 C 464.238281 298.003906 512.15625 345.921875 512.15625 405.082031 C 512.15625 464.242188 464.238281 512.15625 405.082031 512.15625 Z M 405.082031 512.15625 " fill-opacity="1" fill-rule="nonzero"/></g><g clip-path="url(#25cfdf7bd5)"><path fill="#ffffff" d="M 705.148438 255.78125 C 705.148438 172.601562 637.722656 105.171875 554.539062 105.171875 C 466.183594 105.171875 343.96875 105.171875 255.613281 105.171875 C 172.429688 105.171875 105 172.601562 105 255.78125 C 105 344.140625 105 466.355469 105 554.710938 C 105 637.894531 172.429688 705.324219 255.613281 705.324219 C 343.96875 705.324219 466.183594 705.324219 554.539062 705.324219 C 637.722656 705.324219 705.148438 637.894531 705.148438 554.710938 Z M 630.132812 255.78125 L 630.132812 554.710938 C 630.132812 596.460938 596.289062 630.304688 554.539062 630.304688 C 554.539062 630.304688 255.613281 630.304688 255.613281 630.304688 C 213.863281 630.304688 180.019531 596.460938 180.019531 554.710938 C 180.019531 554.710938 180.019531 255.78125 180.019531 255.78125 C 180.019531 214.035156 213.863281 180.191406 255.609375 180.191406 C 255.613281 180.191406 554.539062 180.191406 554.539062 180.191406 C 596.289062 180.191406 630.132812 214.035156 630.132812 255.78125 Z M 630.132812 255.78125 " fill-opacity="1" fill-rule="evenodd"/></g></svg>