<svg xmlns="http://www.w3.org/2000/svg" xmlns:xlink="http://www.w3.org/1999/xlink" width="1080" zoomAndPan="magnify" viewBox="0 0 810 809.999993" height="1080" preserveAspectRatio="xMidYMid meet" version="1.0"><path fill="#000000" d="M 149.226562 455.421875 L 150.039062 456.644531 L 394.671875 804.429688 C 394.988281 804.835938 395.328125 805.222656 395.6875 805.59375 C 396.046875 805.964844 396.429688 806.308594 396.828125 806.636719 C 397.230469 806.960938 397.648438 807.265625 398.082031 807.542969 C 398.515625 807.820312 398.964844 808.074219 399.429688 808.300781 C 399.894531 808.527344 400.367188 808.726562 400.855469 808.902344 C 401.34375 809.074219 401.835938 809.21875 402.339844 809.335938 C 402.84375 809.453125 403.351562 809.539062 403.863281 809.597656 C 404.375 809.65625 404.890625 809.6875 405.40625 809.6875 C 405.925781 809.6875 406.4375 809.65625 406.953125 809.597656 C 407.464844 809.539062 407.972656 809.453125 408.476562 809.335938 C 408.980469 809.21875 409.472656 809.074219 409.960938 808.902344 C 410.445312 808.726562 410.921875 808.527344 411.386719 808.300781 C 411.847656 808.074219 412.296875 807.820312 412.734375 807.542969 C 413.167969 807.265625 413.585938 806.960938 413.984375 806.636719 C 414.386719 806.308594 414.765625 805.964844 415.128906 805.59375 C 415.488281 805.222656 415.828125 804.835938 416.144531 804.429688 L 659.960938 456.644531 L 660.773438 455.421875 C 663.832031 449.890625 666.703125 444.265625 669.394531 438.546875 C 672.085938 432.828125 674.585938 427.03125 676.902344 421.148438 C 679.214844 415.269531 681.335938 409.320312 683.265625 403.300781 C 685.191406 397.285156 686.921875 391.210938 688.457031 385.078125 C 689.992188 378.949219 691.324219 372.777344 692.457031 366.558594 C 693.59375 360.34375 694.523438 354.09375 695.25 347.816406 C 695.980469 341.542969 696.503906 335.246094 696.824219 328.9375 C 697.144531 322.625 697.257812 316.308594 697.167969 309.992188 C 697.078125 303.671875 696.785156 297.363281 696.285156 291.0625 C 695.785156 284.765625 695.082031 278.488281 694.175781 272.234375 C 693.269531 265.980469 692.160156 259.761719 690.851562 253.578125 C 689.542969 247.398438 688.035156 241.265625 686.324219 235.179688 C 684.617188 229.097656 682.714844 223.074219 680.617188 217.113281 C 678.519531 211.152344 676.226562 205.265625 673.746094 199.453125 C 671.269531 193.640625 668.601562 187.917969 665.75 182.277344 C 662.898438 176.636719 659.867188 171.097656 656.65625 165.65625 C 653.441406 160.210938 650.058594 154.878906 646.5 149.65625 C 642.945312 144.433594 639.222656 139.332031 635.332031 134.351562 C 631.445312 129.367188 627.398438 124.519531 623.195312 119.800781 C 618.992188 115.082031 614.640625 110.503906 610.140625 106.066406 C 605.640625 101.628906 601 97.34375 596.222656 93.207031 C 591.445312 89.074219 586.539062 85.097656 581.503906 81.28125 C 576.464844 77.460938 571.3125 73.8125 566.039062 70.328125 C 560.765625 66.847656 555.386719 63.539062 549.898438 60.40625 C 544.410156 57.273438 538.828125 54.320312 533.148438 51.546875 C 527.46875 48.777344 521.707031 46.191406 515.859375 43.792969 C 510.011719 41.398438 504.09375 39.191406 498.105469 37.175781 C 492.113281 35.164062 486.066406 33.347656 479.957031 31.726562 C 473.847656 30.105469 467.695312 28.683594 461.496094 27.460938 C 455.296875 26.238281 449.0625 25.21875 442.796875 24.402344 C 436.53125 23.585938 430.242188 22.972656 423.9375 22.5625 C 417.632812 22.152344 411.320312 21.949219 405 21.949219 C 398.679688 21.949219 392.367188 22.152344 386.0625 22.5625 C 379.757812 22.972656 373.46875 23.585938 367.203125 24.402344 C 360.9375 25.21875 354.703125 26.238281 348.503906 27.460938 C 342.304688 28.683594 336.152344 30.105469 330.042969 31.726562 C 323.933594 33.347656 317.886719 35.164062 311.894531 37.175781 C 305.90625 39.191406 299.988281 41.398438 294.140625 43.792969 C 288.292969 46.191406 282.53125 48.777344 276.851562 51.546875 C 271.171875 54.320312 265.589844 57.273438 260.101562 60.40625 C 254.613281 63.539062 249.234375 66.847656 243.960938 70.328125 C 238.6875 73.8125 233.535156 77.460938 228.496094 81.28125 C 223.460938 85.097656 218.554688 89.074219 213.777344 93.207031 C 209 97.34375 204.359375 101.628906 199.859375 106.066406 C 195.359375 110.503906 191.007812 115.082031 186.804688 119.800781 C 182.601562 124.519531 178.554688 129.367188 174.667969 134.351562 C 170.777344 139.332031 167.054688 144.433594 163.5 149.65625 C 159.941406 154.878906 156.558594 160.210938 153.34375 165.65625 C 150.132812 171.097656 147.101562 176.636719 144.25 182.277344 C 141.398438 187.917969 138.734375 193.640625 136.253906 199.453125 C 133.773438 205.265625 131.480469 211.152344 129.382812 217.113281 C 127.285156 223.074219 125.382812 229.097656 123.675781 235.179688 C 121.964844 241.265625 120.457031 247.398438 119.148438 253.578125 C 117.839844 259.761719 116.730469 265.980469 115.824219 272.234375 C 114.917969 278.488281 114.214844 284.765625 113.714844 291.0625 C 113.214844 297.363281 112.921875 303.671875 112.832031 309.992188 C 112.742188 316.308594 112.855469 322.625 113.175781 328.9375 C 113.496094 335.246094 114.019531 341.542969 114.75 347.816406 C 115.476562 354.09375 116.40625 360.34375 117.542969 366.558594 C 118.675781 372.777344 120.007812 378.949219 121.542969 385.078125 C 123.078125 391.210938 124.808594 397.285156 126.734375 403.300781 C 128.664062 409.320312 130.785156 415.269531 133.097656 421.148438 C 135.414062 427.03125 137.914062 432.828125 140.605469 438.546875 C 143.296875 444.265625 146.167969 449.890625 149.226562 455.421875 Z M 405 192.035156 C 407 192.035156 409.003906 192.085938 411 192.183594 C 413 192.28125 414.996094 192.429688 416.988281 192.625 C 418.980469 192.820312 420.96875 193.066406 422.949219 193.359375 C 424.925781 193.652344 426.898438 193.996094 428.863281 194.386719 C 430.824219 194.777344 432.777344 195.214844 434.71875 195.699219 C 436.660156 196.1875 438.589844 196.722656 440.507812 197.300781 C 442.421875 197.882812 444.320312 198.511719 446.207031 199.183594 C 448.089844 199.859375 449.957031 200.578125 451.808594 201.347656 C 453.65625 202.113281 455.488281 202.921875 457.296875 203.777344 C 459.105469 204.632812 460.894531 205.535156 462.660156 206.476562 C 464.425781 207.421875 466.164062 208.40625 467.882812 209.4375 C 469.597656 210.464844 471.289062 211.535156 472.953125 212.648438 C 474.621094 213.761719 476.253906 214.914062 477.863281 216.105469 C 479.472656 217.296875 481.046875 218.53125 482.597656 219.800781 C 484.144531 221.070312 485.660156 222.375 487.140625 223.722656 C 488.625 225.066406 490.074219 226.445312 491.488281 227.859375 C 492.90625 229.277344 494.285156 230.726562 495.628906 232.207031 C 496.972656 233.691406 498.28125 235.207031 499.550781 236.753906 C 500.820312 238.300781 502.050781 239.878906 503.246094 241.488281 C 504.4375 243.09375 505.589844 244.730469 506.703125 246.394531 C 507.8125 248.058594 508.882812 249.75 509.914062 251.46875 C 510.941406 253.183594 511.929688 254.925781 512.871094 256.691406 C 513.816406 258.457031 514.714844 260.246094 515.570312 262.054688 C 516.425781 263.863281 517.238281 265.691406 518.003906 267.542969 C 518.769531 269.390625 519.492188 271.257812 520.164062 273.144531 C 520.839844 275.027344 521.46875 276.929688 522.046875 278.84375 C 522.628906 280.761719 523.164062 282.6875 523.648438 284.628906 C 524.136719 286.570312 524.574219 288.523438 524.964844 290.488281 C 525.355469 292.453125 525.699219 294.421875 525.992188 296.402344 C 526.285156 298.382812 526.53125 300.371094 526.726562 302.363281 C 526.921875 304.355469 527.070312 306.347656 527.167969 308.347656 C 527.265625 310.347656 527.316406 312.347656 527.316406 314.351562 C 527.316406 316.351562 527.265625 318.351562 527.167969 320.351562 C 527.070312 322.351562 526.921875 324.347656 526.726562 326.339844 C 526.53125 328.332031 526.285156 330.316406 525.992188 332.296875 C 525.699219 334.277344 525.355469 336.25 524.964844 338.214844 C 524.574219 340.175781 524.136719 342.128906 523.648438 344.070312 C 523.164062 346.011719 522.628906 347.941406 522.046875 349.855469 C 521.46875 351.773438 520.839844 353.671875 520.164062 355.558594 C 519.492188 357.441406 518.769531 359.308594 518.003906 361.160156 C 517.238281 363.007812 516.425781 364.835938 515.570312 366.648438 C 514.714844 368.457031 513.816406 370.246094 512.871094 372.007812 C 511.929688 373.773438 510.941406 375.515625 509.914062 377.234375 C 508.882812 378.949219 507.8125 380.640625 506.703125 382.304688 C 505.589844 383.96875 504.4375 385.605469 503.246094 387.214844 C 502.050781 388.820312 500.820312 390.398438 499.550781 391.945312 C 498.28125 393.492188 496.972656 395.007812 495.628906 396.492188 C 494.285156 397.976562 492.90625 399.425781 491.488281 400.839844 C 490.074219 402.257812 488.625 403.636719 487.140625 404.980469 C 485.660156 406.324219 484.144531 407.632812 482.597656 408.902344 C 481.046875 410.171875 479.472656 411.402344 477.863281 412.59375 C 476.253906 413.789062 474.621094 414.941406 472.953125 416.050781 C 471.289062 417.164062 469.601562 418.234375 467.882812 419.265625 C 466.164062 420.292969 464.425781 421.28125 462.660156 422.222656 C 460.894531 423.167969 459.105469 424.066406 457.296875 424.921875 C 455.488281 425.777344 453.65625 426.589844 451.808594 427.355469 C 449.957031 428.121094 448.089844 428.839844 446.207031 429.515625 C 444.320312 430.191406 442.421875 430.816406 440.507812 431.398438 C 438.589844 431.980469 436.660156 432.515625 434.71875 433 C 432.777344 433.488281 430.824219 433.925781 428.863281 434.316406 C 426.898438 434.707031 424.925781 435.046875 422.949219 435.34375 C 420.96875 435.636719 418.980469 435.882812 416.988281 436.078125 C 414.996094 436.273438 413 436.421875 411 436.519531 C 409.003906 436.617188 407 436.667969 405 436.667969 C 403 436.667969 400.996094 436.617188 399 436.519531 C 397 436.421875 395.003906 436.273438 393.011719 436.078125 C 391.019531 435.882812 389.03125 435.636719 387.050781 435.34375 C 385.074219 435.046875 383.101562 434.707031 381.136719 434.316406 C 379.175781 433.925781 377.222656 433.488281 375.28125 433 C 373.339844 432.515625 371.410156 431.980469 369.492188 431.398438 C 367.578125 430.816406 365.679688 430.191406 363.792969 429.515625 C 361.910156 428.839844 360.042969 428.121094 358.191406 427.355469 C 356.34375 426.589844 354.511719 425.777344 352.703125 424.921875 C 350.894531 424.066406 349.105469 423.167969 347.339844 422.222656 C 345.574219 421.28125 343.835938 420.292969 342.117188 419.265625 C 340.398438 418.234375 338.710938 417.164062 337.046875 416.050781 C 335.378906 414.941406 333.746094 413.789062 332.136719 412.59375 C 330.527344 411.402344 328.953125 410.171875 327.402344 408.902344 C 325.855469 407.632812 324.339844 406.324219 322.859375 404.980469 C 321.375 403.636719 319.925781 402.257812 318.511719 400.839844 C 317.09375 399.425781 315.714844 397.976562 314.371094 396.492188 C 313.027344 395.007812 311.71875 393.492188 310.449219 391.945312 C 309.179688 390.398438 307.949219 388.820312 306.753906 387.214844 C 305.5625 385.605469 304.410156 383.96875 303.296875 382.304688 C 302.1875 380.640625 301.117188 378.949219 300.085938 377.234375 C 299.058594 375.515625 298.070312 373.773438 297.128906 372.007812 C 296.183594 370.246094 295.285156 368.457031 294.429688 366.648438 C 293.570312 364.835938 292.761719 363.007812 291.996094 361.160156 C 291.230469 359.308594 290.507812 357.441406 289.835938 355.558594 C 289.160156 353.671875 288.53125 351.773438 287.953125 349.855469 C 287.371094 347.941406 286.835938 346.011719 286.351562 344.070312 C 285.863281 342.128906 285.425781 340.175781 285.035156 338.214844 C 284.644531 336.25 284.300781 334.277344 284.007812 332.296875 C 283.714844 330.316406 283.46875 328.332031 283.273438 326.339844 C 283.078125 324.347656 282.929688 322.351562 282.832031 320.351562 C 282.734375 318.351562 282.683594 316.351562 282.683594 314.351562 C 282.683594 312.347656 282.734375 310.347656 282.832031 308.347656 C 282.929688 306.347656 283.078125 304.355469 283.273438 302.363281 C 283.46875 300.371094 283.714844 298.382812 284.007812 296.402344 C 284.300781 294.421875 284.644531 292.453125 285.035156 290.488281 C 285.425781 288.523438 285.863281 286.570312 286.351562 284.628906 C 286.835938 282.6875 287.371094 280.761719 287.953125 278.84375 C 288.53125 276.929688 289.160156 275.027344 289.835938 273.144531 C 290.507812 271.257812 291.230469 269.390625 291.996094 267.542969 C 292.761719 265.691406 293.574219 263.863281 294.429688 262.054688 C 295.285156 260.246094 296.183594 258.457031 297.128906 256.691406 C 298.070312 254.925781 299.058594 253.183594 300.085938 251.46875 C 301.117188 249.75 302.1875 248.058594 303.296875 246.394531 C 304.410156 244.730469 305.5625 243.09375 306.753906 241.488281 C 307.949219 239.878906 309.179688 238.300781 310.449219 236.753906 C 311.71875 235.207031 313.027344 233.691406 314.371094 232.207031 C 315.714844 230.726562 317.09375 229.277344 318.511719 227.859375 C 319.925781 226.445312 321.375 225.066406 322.859375 223.722656 C 324.339844 222.375 325.855469 221.070312 327.402344 219.800781 C 328.953125 218.53125 330.527344 217.296875 332.136719 216.105469 C 333.746094 214.914062 335.378906 213.761719 337.046875 212.648438 C 338.710938 211.535156 340.398438 210.464844 342.117188 209.4375 C 343.835938 208.40625 345.574219 207.421875 347.339844 206.476562 C 349.105469 205.535156 350.894531 204.632812 352.703125 203.777344 C 354.511719 202.921875 356.34375 202.113281 358.191406 201.347656 C 360.042969 200.578125 361.910156 199.859375 363.792969 199.183594 C 365.679688 198.511719 367.578125 197.882812 369.492188 197.300781 C 371.410156 196.722656 373.339844 196.1875 375.28125 195.699219 C 377.222656 195.214844 379.175781 194.777344 381.136719 194.386719 C 383.101562 193.996094 385.074219 193.652344 387.050781 193.359375 C 389.03125 193.066406 391.019531 192.820312 393.011719 192.625 C 395.003906 192.429688 397 192.28125 399 192.183594 C 400.996094 192.085938 403 192.035156 405 192.035156 Z M 405 192.035156 " fill-opacity="1" fill-rule="nonzero"/></svg>