<svg xmlns="http://www.w3.org/2000/svg" xmlns:xlink="http://www.w3.org/1999/xlink" width="1080" zoomAndPan="magnify" viewBox="0 0 810 809.999993" height="1080" preserveAspectRatio="xMidYMid meet" version="1.0"><defs><clipPath id="e5a4408b2e"><path d="M 115 432 L 695 432 L 695 612.734375 L 115 612.734375 Z M 115 432 " clip-rule="nonzero"/></clipPath><clipPath id="c4740f1549"><path d="M 115 197.234375 L 695 197.234375 L 695 441 L 115 441 Z M 115 197.234375 " clip-rule="nonzero"/></clipPath><clipPath id="5478c7c72a"><path d="M 512 225 L 729 225 L 729 585 L 512 585 Z M 512 225 " clip-rule="nonzero"/></clipPath></defs><g clip-path="url(#e5a4408b2e)"><path fill="#000000" d="M 693.238281 605.210938 L 489.871094 436.351562 C 483.929688 431.417969 475.3125 431.417969 469.371094 436.351562 L 414.582031 481.84375 C 409.0625 486.421875 401.074219 486.421875 395.5625 481.84375 L 340.773438 436.351562 C 334.828125 431.417969 326.214844 431.417969 320.261719 436.351562 L 116.898438 605.210938 C 114.101562 607.535156 115.742188 612.082031 119.386719 612.082031 L 690.757812 612.082031 C 694.390625 612.082031 696.035156 607.535156 693.238281 605.210938 " fill-opacity="1" fill-rule="nonzero"/></g><path fill="#000000" d="M 294.863281 398.234375 L 87.457031 226.019531 C 84.925781 223.917969 81.085938 225.71875 81.085938 229.007812 L 81.085938 580.945312 C 81.085938 584.234375 84.925781 586.035156 87.457031 583.941406 L 294.863281 411.726562 C 299.085938 408.214844 299.085938 401.738281 294.863281 398.234375 " fill-opacity="1" fill-rule="nonzero"/><g clip-path="url(#c4740f1549)"><path fill="#000000" d="M 116.90625 204.746094 L 397.285156 437.554688 C 401.800781 441.300781 408.34375 441.300781 412.847656 437.554688 L 693.238281 204.746094 C 696.035156 202.425781 694.390625 197.871094 690.757812 197.871094 L 119.386719 197.871094 C 115.742188 197.871094 114.101562 202.425781 116.90625 204.746094 " fill-opacity="1" fill-rule="nonzero"/></g><g clip-path="url(#5478c7c72a)"><path fill="#000000" d="M 722.6875 226.019531 L 515.28125 398.234375 C 511.054688 401.738281 511.054688 408.214844 515.28125 411.726562 L 722.6875 583.941406 C 725.214844 586.035156 729.050781 584.242188 729.050781 580.953125 L 729.050781 229.007812 C 729.050781 225.71875 725.214844 223.917969 722.6875 226.019531 " fill-opacity="1" fill-rule="nonzero"/></g></svg>