<svg xmlns="http://www.w3.org/2000/svg" xmlns:xlink="http://www.w3.org/1999/xlink" width="1080" zoomAndPan="magnify" viewBox="0 0 810 809.999993" height="1080" preserveAspectRatio="xMidYMid meet" version="1.0"><defs><clipPath id="7de6b199fc"><path d="M 68.226562 126.71875 L 741.695312 126.71875 L 741.695312 238.488281 L 68.226562 238.488281 Z M 68.226562 126.71875 " clip-rule="nonzero"/></clipPath><clipPath id="8336b83b85"><path d="M 68.226562 349 L 741.695312 349 L 741.695312 461 L 68.226562 461 Z M 68.226562 349 " clip-rule="nonzero"/></clipPath><clipPath id="f2a62c947a"><path d="M 68.226562 572 L 741.695312 572 L 741.695312 683.21875 L 68.226562 683.21875 Z M 68.226562 572 " clip-rule="nonzero"/></clipPath></defs><g clip-path="url(#7de6b199fc)"><path fill="#1e1e1e" d="M 741.6875 238.039062 L 68.226562 238.039062 L 68.226562 126.730469 L 741.6875 126.730469 L 741.6875 238.039062 " fill-opacity="1" fill-rule="nonzero"/></g><g clip-path="url(#8336b83b85)"><path fill="#1e1e1e" d="M 741.6875 460.683594 L 68.226562 460.683594 L 68.226562 349.359375 L 741.6875 349.359375 L 741.6875 460.683594 " fill-opacity="1" fill-rule="nonzero"/></g><g clip-path="url(#f2a62c947a)"><path fill="#1e1e1e" d="M 741.6875 683.324219 L 68.226562 683.324219 L 68.226562 572.003906 L 741.6875 572.003906 L 741.6875 683.324219 " fill-opacity="1" fill-rule="nonzero"/></g></svg>