<svg xmlns="http://www.w3.org/2000/svg" xmlns:xlink="http://www.w3.org/1999/xlink" width="1080" zoomAndPan="magnify" viewBox="0 0 810 809.999993" height="1080" preserveAspectRatio="xMidYMid meet" version="1.0"><defs><clipPath id="3b8ed42377"><path d="M 243 294.839844 L 567 294.839844 L 567 469 L 243 469 Z M 243 294.839844 " clip-rule="nonzero"/></clipPath></defs><path fill="#1b1b1b" d="M 486.382812 487.722656 C 462.058594 509.28125 436.691406 488.542969 435.632812 487.660156 C 434.179688 486.4375 432.058594 486.441406 430.609375 487.65625 C 429.539062 488.542969 404.167969 509.28125 379.847656 487.722656 C 378.363281 486.410156 376.152344 486.410156 374.671875 487.722656 C 350.347656 509.289062 324.984375 488.542969 323.917969 487.660156 C 322.269531 486.265625 319.804688 486.480469 318.421875 488.128906 C 317.03125 489.777344 317.242188 492.242188 318.886719 493.632812 C 319.097656 493.804688 332.949219 505.234375 350.855469 505.234375 C 359.109375 505.234375 368.226562 502.804688 377.257812 495.726562 C 401.042969 514.359375 425.382812 500.765625 433.117188 495.484375 C 441.132812 500.960938 466.972656 515.355469 491.558594 493.570312 C 493.171875 492.140625 493.324219 489.671875 491.890625 488.054688 C 490.460938 486.441406 488 486.292969 486.382812 487.722656 " fill-opacity="1" fill-rule="nonzero"/><g clip-path="url(#3b8ed42377)"><path fill="#1b1b1b" d="M 535.410156 404.15625 L 522.960938 404.15625 L 522.960938 371.316406 C 526.90625 373.480469 531.054688 375.386719 535.410156 376.953125 Z M 474.84375 322.402344 C 479.402344 329.886719 485.679688 338.945312 493.671875 347.710938 L 493.671875 404.15625 L 474.84375 404.15625 Z M 452.734375 454.757812 C 447.746094 457.929688 440.746094 461.160156 432.917969 461.160156 C 432.8125 461.160156 432.703125 461.160156 432.597656 461.160156 C 423.851562 461.0625 415.589844 456.882812 408.046875 448.753906 C 406.570312 447.160156 403.800781 447.160156 402.324219 448.753906 C 394.78125 456.882812 386.523438 461.0625 377.777344 461.160156 C 377.671875 461.160156 377.566406 461.160156 377.457031 461.160156 C 369.632812 461.160156 362.632812 457.929688 357.640625 454.757812 L 357.640625 416.222656 L 452.734375 416.222656 Z M 335.074219 404.15625 L 316.246094 404.15625 L 316.246094 348.789062 C 324.234375 340.484375 330.679688 331.84375 335.53125 324.480469 L 335.53125 404.15625 Z M 274.507812 377 C 278.847656 375.460938 283.003906 373.601562 286.960938 371.484375 L 286.960938 404.15625 L 274.507812 404.15625 Z M 308.441406 404.15625 L 294.769531 404.15625 L 294.769531 366.832031 C 299.660156 363.625 304.222656 360.058594 308.441406 356.308594 Z M 377.511719 351.789062 L 377.511719 404.15625 L 357.640625 404.15625 L 357.640625 331.800781 C 362.375 338.53125 368.992188 346.109375 377.511719 351.789062 Z M 409.089844 360.3125 C 414.902344 359.839844 420.222656 358.332031 425.058594 356.140625 L 425.058594 404.15625 L 409.089844 404.15625 Z M 401.285156 404.15625 L 385.320312 404.15625 L 385.320312 356.140625 C 390.152344 358.332031 395.472656 359.835938 401.285156 360.308594 Z M 452.734375 331.800781 L 452.734375 404.15625 L 432.863281 404.15625 L 432.863281 351.789062 C 441.382812 346.113281 447.996094 338.527344 452.734375 331.800781 Z M 515.152344 366.539062 L 515.152344 404.15625 L 501.476562 404.15625 L 501.476562 355.601562 C 505.667969 359.5 510.226562 363.207031 515.152344 366.539062 Z M 562.660156 373.914062 C 512.527344 373.914062 482.359375 321.105469 474.84375 306.199219 L 474.84375 294.875 L 452.734375 294.875 L 452.734375 316.761719 C 447.507812 326.667969 431.304688 352.660156 405.1875 352.660156 C 379.070312 352.660156 362.867188 326.667969 357.640625 316.757812 L 357.640625 294.875 L 335.53125 294.875 L 335.53125 309.339844 C 325.253906 327.457031 294.308594 373.914062 247.257812 373.914062 C 245.101562 373.914062 243.355469 375.664062 243.355469 377.820312 C 243.355469 379.976562 245.101562 381.722656 247.257812 381.722656 C 254.078125 381.722656 260.558594 380.871094 266.703125 379.347656 L 266.703125 404.15625 L 247.257812 404.15625 L 247.257812 416.222656 L 335.53125 416.222656 L 335.53125 454.371094 C 311.394531 467 294.808594 449.601562 294.042969 448.777344 C 292.589844 447.183594 290.125 447.078125 288.535156 448.53125 C 286.941406 449.984375 286.832031 452.453125 288.289062 454.046875 C 288.539062 454.320312 313.382812 480.792969 346.84375 456.496094 C 351.761719 460.707031 363.238281 468.96875 377.449219 468.96875 C 377.570312 468.96875 377.683594 468.96875 377.800781 468.96875 C 387.65625 468.878906 396.847656 464.839844 405.1875 456.957031 C 413.523438 464.839844 422.722656 468.878906 432.574219 468.96875 C 432.691406 468.96875 432.804688 468.96875 432.925781 468.96875 C 447.136719 468.96875 458.613281 460.703125 463.53125 456.496094 C 496.972656 480.785156 521.832031 454.320312 522.085938 454.046875 C 523.539062 452.460938 523.429688 450 521.851562 448.542969 C 520.265625 447.085938 517.800781 447.191406 516.339844 448.765625 C 515.566406 449.601562 498.984375 467.003906 474.84375 454.371094 L 474.84375 416.222656 L 562.660156 416.222656 L 562.660156 404.15625 L 543.214844 404.15625 L 543.214844 379.332031 C 549.332031 380.863281 555.8125 381.722656 562.660156 381.722656 C 564.8125 381.722656 566.5625 379.976562 566.5625 377.820312 C 566.5625 375.664062 564.8125 373.914062 562.660156 373.914062 " fill-opacity="1" fill-rule="nonzero"/></g></svg>