<svg xmlns="http://www.w3.org/2000/svg" xmlns:xlink="http://www.w3.org/1999/xlink" width="1080" zoomAndPan="magnify" viewBox="0 0 810 809.999993" height="1080" preserveAspectRatio="xMidYMid meet" version="1.0"><defs><clipPath id="941af47d4f"><path d="M 81 39.085938 L 729 39.085938 L 729 771 L 81 771 Z M 81 39.085938 " clip-rule="nonzero"/></clipPath></defs><g clip-path="url(#941af47d4f)"><path fill="#ffffff" d="M 419.859375 39.414062 C 232.714844 39.414062 81 191.128906 81 378.273438 L 81 470.632812 C 81 636.28125 215.285156 770.566406 380.9375 770.566406 L 426.15625 770.566406 C 566.832031 770.566406 680.875 656.527344 680.875 515.847656 L 680.875 503.390625 C 680.875 432.636719 626.753906 374.523438 557.652344 368.183594 L 557.652344 348.761719 C 557.652344 265.953125 490.523438 198.828125 407.71875 198.828125 L 399.570312 198.828125 C 347.769531 198.828125 300.421875 228.089844 277.257812 274.421875 C 266.945312 295.046875 275.304688 320.125 295.929688 330.4375 C 316.554688 340.753906 341.636719 332.390625 351.949219 311.765625 C 360.96875 293.730469 379.402344 282.335938 399.570312 282.335938 L 407.71875 282.335938 C 444.402344 282.335938 474.144531 312.074219 474.144531 348.761719 L 474.144531 363.378906 L 394.660156 364.242188 C 327.171875 364.976562 272.847656 419.890625 272.847656 487.386719 C 272.847656 555.398438 327.984375 610.535156 395.996094 610.535156 L 415.25 610.535156 C 493.894531 610.535156 557.652344 546.777344 557.652344 468.132812 L 557.652344 452.640625 C 580.457031 458.261719 597.367188 478.851562 597.367188 503.390625 L 597.367188 515.847656 C 597.367188 610.40625 520.710938 687.0625 426.15625 687.0625 L 380.9375 687.0625 C 261.40625 687.0625 164.507812 590.164062 164.507812 470.632812 L 164.507812 378.273438 C 164.507812 237.246094 278.832031 122.921875 419.859375 122.921875 L 525.34375 122.921875 C 591.707031 122.921875 645.503906 176.71875 645.503906 243.078125 C 645.503906 266.140625 664.195312 284.832031 687.257812 284.832031 C 710.316406 284.832031 729.011719 266.140625 729.011719 243.078125 C 729.011719 130.597656 637.824219 39.414062 525.34375 39.414062 Z M 395.566406 447.746094 L 474.144531 446.890625 L 474.144531 468.132812 C 474.144531 500.65625 447.777344 527.027344 415.25 527.027344 L 395.996094 527.027344 C 374.105469 527.027344 356.355469 509.277344 356.355469 487.386719 C 356.355469 465.660156 373.84375 447.980469 395.566406 447.746094 Z M 395.566406 447.746094 " fill-opacity="1" fill-rule="evenodd"/></g></svg>