<svg xmlns="http://www.w3.org/2000/svg" xmlns:xlink="http://www.w3.org/1999/xlink" width="1080" zoomAndPan="magnify" viewBox="0 0 810 809.999993" height="1080" preserveAspectRatio="xMidYMid meet" version="1.0"><defs><clipPath id="473b3cc02c"><path d="M 63 97.199219 L 747 97.199219 L 747 712.949219 L 63 712.949219 Z M 63 97.199219 " clip-rule="nonzero"/></clipPath></defs><g clip-path="url(#473b3cc02c)"><path fill="#ffffff" d="M 492.671875 351.019531 L 670.574219 97.199219 L 582.230469 97.199219 L 448.410156 288.066406 L 328.84375 118.902344 L 313.34375 97.800781 L 313.34375 97.199219 L 63 97.199219 L 119.882812 177.078125 L 323.285156 466.402344 L 150.390625 712.949219 L 238.730469 712.949219 L 367.515625 529.273438 L 481 690.773438 L 496.34375 712.949219 L 747 712.949219 L 690.117188 631.503906 Z M 648.09375 662.320312 L 523.023438 662.320312 L 161.90625 153.300781 L 289.351562 153.300781 L 288.71875 151.339844 L 648.25 662.320312 Z M 648.09375 662.320312 " fill-opacity="1" fill-rule="nonzero"/></g></svg>