<svg xmlns="http://www.w3.org/2000/svg" xmlns:xlink="http://www.w3.org/1999/xlink" width="1280" zoomAndPan="magnify" viewBox="0 0 810 809.999993" height="1280" preserveAspectRatio="xMidYMid meet" version="1.0"><defs><clipPath id="77c5c1bcb8"><path d="M 121 182.039062 L 688.722656 182.039062 L 688.722656 628.289062 L 121 628.289062 Z M 121 182.039062 " clip-rule="nonzero"/></clipPath></defs><g clip-path="url(#77c5c1bcb8)"><path fill="#ffffff" d="M 404.847656 182.039062 C 322.234375 182.039062 249.113281 190.597656 204.640625 197.253906 C 168.238281 202.640625 139.277344 231.164062 132.628906 267.773438 C 126.933594 299.78125 121.234375 346.53125 121.234375 405.164062 C 121.234375 463.796875 126.933594 510.546875 132.628906 542.558594 C 139.277344 579.164062 168.238281 607.53125 204.640625 613.078125 C 249.273438 619.734375 322.707031 628.289062 404.847656 628.289062 C 486.988281 628.289062 560.269531 619.734375 604.898438 613.078125 L 605.058594 613.078125 C 641.457031 607.6875 670.421875 579.164062 677.070312 542.558594 C 682.765625 510.390625 688.464844 463.640625 688.464844 405.164062 C 688.464844 346.53125 682.765625 299.78125 676.910156 267.773438 C 670.421875 231.164062 641.457031 202.640625 605.058594 197.253906 C 560.585938 190.597656 487.464844 182.039062 404.847656 182.039062 Z M 404.847656 222.609375 C 484.617188 222.609375 555.996094 230.847656 599.042969 237.347656 C 618.035156 240.199219 633.386719 255.09375 637.027344 274.902344 C 642.410156 304.855469 647.949219 349.226562 647.949219 405.164062 C 647.949219 461.105469 642.410156 505.476562 637.1875 535.269531 C 633.546875 555.234375 618.195312 570.132812 599.042969 572.984375 C 555.679688 579.324219 484.140625 587.722656 404.847656 587.722656 C 325.558594 587.722656 253.863281 579.324219 210.65625 572.984375 C 191.664062 570.132812 176.152344 555.234375 172.511719 535.269531 C 167.289062 505.316406 161.75 461.105469 161.75 405.164062 C 161.75 349.066406 167.289062 304.855469 172.511719 274.902344 C 176.152344 255.09375 191.503906 240.199219 210.496094 237.503906 L 210.65625 237.503906 C 253.703125 231.007812 325.082031 222.609375 404.847656 222.609375 Z M 323.816406 303.746094 L 323.816406 506.585938 L 526.398438 405.164062 Z M 323.816406 303.746094 " fill-opacity="1" fill-rule="nonzero"/></g></svg>